<svg width="70" height="70" viewBox="0 0 70 70" fill="none" xmlns="http://www.w3.org/2000/svg">
<rect width="70" height="70" rx="8" fill="url(#paint0_linear_17_3)" fill-opacity="0.1"/>
<path d="M52.3858 41.8621C52.0619 41.8621 51.7995 42.1246 51.7995 42.4484V49.1962C51.7995 49.8327 51.2816 50.3505 50.6452 50.3505H33.7564V48.6267C33.7564 48.4507 33.722 48.2259 33.604 47.9789C34.3302 47.7127 34.9293 47.3873 35.3425 47.0041H36.5246C37.4655 47.0041 38.231 46.2385 38.231 45.2976C38.231 44.3567 37.4655 43.5912 36.5246 43.5912H35.9668V42.4624C35.9668 42.4493 35.9662 42.436 35.9658 42.4227H36.5246C37.4655 42.4227 38.231 41.6571 38.231 40.7162C38.231 39.7753 37.4655 39.0098 36.5246 39.0098H35.0728C34.5424 39.0098 34.0678 39.2531 33.7546 39.6339C33.7554 39.6133 33.7565 39.5928 33.7565 39.5721V37.2195C34.0697 37.5988 34.5435 37.841 35.0727 37.841H36.5245C37.4654 37.841 38.2309 37.0756 38.2309 36.1346C38.2309 35.1937 37.4654 34.4282 36.5245 34.4282H35.9667V32.1394H36.5245C37.4654 32.1394 38.2309 31.374 38.2309 30.433C38.2309 29.4921 37.4654 28.7266 36.5245 28.7266H35.0726C34.6082 28.7266 34.1679 28.9186 33.8502 29.244C32.2395 28.5962 29.9132 28.264 27.6024 28.264C26.8686 28.264 26.1333 28.2976 25.4197 28.364V17.3269C25.4197 16.6905 25.9375 16.1727 26.574 16.1727H31.3187C31.6425 16.1727 31.905 15.9102 31.905 15.5863C31.905 15.2625 31.6425 15 31.3187 15H26.574C25.2908 15 24.247 16.0439 24.247 17.3269V28.5067C21.4483 28.9302 19.2382 29.904 19.2382 31.392V34.1114C17.417 34.8154 17.028 35.6846 17.028 36.298V39.5721C17.028 40.5409 17.9648 41.2917 19.3908 41.8146C19.2729 42.0614 19.2383 42.286 19.2383 42.4624V45.7365C19.2383 45.9642 19.2902 46.1799 19.388 46.3834C17.458 47.0861 17.028 47.9752 17.028 48.6268V51.9009C17.028 53.8518 20.7052 54.7789 23.8542 54.9801C23.8669 54.9809 23.8795 54.9813 23.8921 54.9813C24.1988 54.9813 24.4569 54.7427 24.4767 54.4323C24.4973 54.1091 24.2521 53.8304 23.9289 53.8098C19.9304 53.5544 18.2006 52.422 18.2006 51.9009V50.306C19.7398 51.2618 22.5775 51.7546 25.3922 51.7546C28.2068 51.7546 31.0446 51.2618 32.5837 50.306V51.9009C32.5837 52.4853 30.5622 53.6292 26.5346 53.8281C26.2111 53.844 25.9619 54.1191 25.9779 54.4426C25.9933 54.7563 26.2525 55 26.5629 55C26.5727 55 26.5825 54.9998 26.5923 54.9993C30.1582 54.8233 33.7564 53.797 33.7564 51.9009V51.5233H50.6452C51.9284 51.5233 52.9722 50.4794 52.9722 49.1963V42.4485C52.9722 42.1246 52.7096 41.8621 52.3858 41.8621ZM35.9667 45.7365V44.764H36.5245V44.7639C36.8188 44.7639 37.0582 45.0033 37.0582 45.2976C37.0582 45.5919 36.8187 45.8313 36.5245 45.8313H35.9636C35.9657 45.8 35.9667 45.7683 35.9667 45.7365ZM35.0727 40.1825H36.5245C36.8188 40.1825 37.0582 40.4218 37.0582 40.7161C37.0582 41.0104 36.8187 41.2499 36.5245 41.2499H35.4061C35.1971 41.0422 34.9168 40.8343 34.546 40.6338C34.5857 40.3786 34.8064 40.1825 35.0727 40.1825ZM34.794 42.4624C34.794 42.6954 34.3993 43.2188 32.9202 43.7021C31.5083 44.1634 29.6198 44.4174 27.6025 44.4174C22.9492 44.4174 20.4109 43.1259 20.4109 42.4624C20.4108 42.3608 20.4762 42.2543 20.5508 42.1653C21.978 42.5194 23.6893 42.6999 25.3921 42.6999C28.2943 42.6999 31.2211 42.1759 32.7235 41.1607C34.3563 41.6553 34.794 42.2244 34.794 42.4624ZM36.5246 35.6011C36.8188 35.601 37.0582 35.8404 37.0582 36.1347C37.0582 36.429 36.8187 36.6684 36.5245 36.6684H35.0727C34.8918 36.6684 34.7321 36.5778 34.6355 36.4399C35.0689 36.1932 35.4126 35.9133 35.6423 35.6011H36.5246ZM35.0727 29.8996H36.5245C36.8188 29.8996 37.0582 30.139 37.0582 30.4333C37.0582 30.7275 36.8187 30.9669 36.5245 30.9669H35.903C35.7821 30.5681 35.4921 30.212 35.0704 29.8997C35.0713 29.8997 35.0719 29.8996 35.0727 29.8996ZM22.2847 30.1523C23.6965 29.691 25.585 29.4369 27.6024 29.4369C32.2557 29.4369 34.7939 30.7285 34.7939 31.3921C34.7939 31.6251 34.3993 32.1485 32.9201 32.6318C31.5082 33.0931 29.6197 33.3472 27.6024 33.3472C22.9491 33.3472 20.4108 32.0556 20.4108 31.3921C20.4108 31.159 20.8055 30.6356 22.2847 30.1523ZM20.4107 33.0713C21.9499 34.0271 24.7876 34.5199 27.6023 34.5199C30.417 34.5199 33.2547 34.027 34.7939 33.0713V34.6661C34.7939 34.8494 34.5494 35.2122 33.7257 35.5939C33.7235 35.5948 33.7214 35.5958 33.7193 35.5968C33.4969 35.6995 33.233 35.8036 32.92 35.9058C31.5081 36.3671 29.6197 36.6212 27.6022 36.6212C22.949 36.6212 20.4107 35.3296 20.4107 34.6661V33.0713ZM19.39 35.3171C20.1776 36.946 23.9101 37.7939 27.6024 37.7939C28.56 37.7939 29.5203 37.7367 30.4313 37.6238C29.0535 38.0296 27.2655 38.2531 25.3922 38.2531C20.739 38.2531 18.2007 36.9615 18.2007 36.2979C18.2006 36.0555 18.5726 35.6761 19.39 35.3171ZM18.2006 39.572V37.9771C19.7398 38.9329 22.5775 39.4257 25.3922 39.4257C28.0465 39.4257 30.9931 38.9656 32.5837 37.9789V39.572C32.5837 39.805 32.189 40.3284 30.7099 40.8117C29.298 41.273 27.4096 41.5271 25.3922 41.5271C20.7389 41.5271 18.2006 40.2357 18.2006 39.572ZM30.7099 49.8665C29.298 50.3278 27.4096 50.5819 25.3922 50.5819C20.7389 50.5819 18.2006 49.2903 18.2006 48.6267C18.2006 48.298 18.8498 47.7567 20.2712 47.3252C21.7736 48.3402 24.7003 48.8642 27.6024 48.8642C29.3054 48.8642 31.0166 48.6838 32.4439 48.3296C32.518 48.418 32.5837 48.5249 32.5837 48.6267C32.5837 48.8598 32.189 49.3831 30.7099 49.8665ZM32.92 46.9761C31.5082 47.4374 29.6197 47.6915 27.6023 47.6915C22.9491 47.6915 20.4108 46.3999 20.4108 45.7364V44.1416C21.9499 45.0974 24.7876 45.5902 27.6023 45.5902C30.417 45.5902 33.2547 45.0974 34.7939 44.1416V45.7364C34.7939 45.9695 34.3993 46.4928 32.92 46.9761Z" fill="url(#paint1_linear_17_3)"/>
<path d="M50.6452 15H33.9907C33.6668 15 33.4043 15.2625 33.4043 15.5863C33.4043 15.9102 33.6668 16.1727 33.9907 16.1727H50.6452C51.2817 16.1727 51.7995 16.6905 51.7995 17.3269V39.7764C51.7995 40.1002 52.062 40.3627 52.3859 40.3627C52.7098 40.3627 52.9722 40.1002 52.9722 39.7764V17.3269C52.9722 16.0439 51.9283 15 50.6452 15Z" fill="url(#paint2_linear_17_3)"/>
<path d="M49.5964 19.7904C49.5964 19.4666 49.334 19.2041 49.0101 19.2041H28.2091C27.8853 19.2041 27.6228 19.4666 27.6228 19.7904V25.5538C27.6228 25.8776 27.8853 26.1401 28.2091 26.1401H49.0102C49.3341 26.1401 49.5965 25.8776 49.5965 25.5538L49.5964 19.7904ZM48.4238 24.9674H28.7954V20.3768H48.4238V24.9674Z" fill="url(#paint3_linear_17_3)"/>
<path d="M42.1465 28.7268H40.6947C39.7538 28.7268 38.9883 29.4923 38.9883 30.4332C38.9883 31.3741 39.7538 32.1396 40.6947 32.1396H42.1465C43.0874 32.1396 43.8529 31.3741 43.8529 30.4332C43.8529 29.4923 43.0874 28.7268 42.1465 28.7268ZM42.1465 30.9669H40.6947C40.4004 30.9669 40.161 30.7275 40.161 30.4332C40.161 30.1389 40.4005 29.8995 40.6947 29.8995H42.1465C42.4408 29.8995 42.6802 30.1389 42.6802 30.4332C42.6802 30.7275 42.4407 30.9669 42.1465 30.9669Z" fill="url(#paint4_linear_17_3)"/>
<path d="M47.7685 28.7268H46.3167C45.3757 28.7268 44.6103 29.4923 44.6103 30.4332C44.6103 31.3741 45.3757 32.1396 46.3167 32.1396H47.7685C48.7094 32.1396 49.4749 31.3741 49.4749 30.4332C49.4749 29.4923 48.7094 28.7268 47.7685 28.7268ZM47.7685 30.9669H46.3167C46.0224 30.9669 45.783 30.7275 45.783 30.4332C45.783 30.1389 46.0224 29.8995 46.3167 29.8995H47.7685C48.0628 29.8995 48.3021 30.1389 48.3021 30.4332C48.3021 30.7275 48.0628 30.9669 47.7685 30.9669Z" fill="url(#paint5_linear_17_3)"/>
<path d="M42.1465 34.4282H40.6947C39.7538 34.4282 38.9883 35.1937 38.9883 36.1346C38.9883 37.0756 39.7538 37.841 40.6947 37.841H42.1465C43.0874 37.841 43.8529 37.0756 43.8529 36.1346C43.8529 35.1937 43.0874 34.4282 42.1465 34.4282ZM42.1465 36.6684H40.6947C40.4004 36.6684 40.161 36.429 40.161 36.1347C40.161 35.8404 40.4005 35.601 40.6947 35.601H42.1465C42.4408 35.601 42.6802 35.8404 42.6802 36.1347C42.6801 36.429 42.4407 36.6684 42.1465 36.6684Z" fill="url(#paint6_linear_17_3)"/>
<path d="M47.7685 34.4282H46.3167C45.3757 34.4282 44.6103 35.1937 44.6103 36.1346C44.6103 37.0756 45.3757 37.841 46.3167 37.841H47.7685C48.7094 37.841 49.4749 37.0756 49.4749 36.1346C49.4749 35.1937 48.7094 34.4282 47.7685 34.4282ZM47.7685 36.6684H46.3167C46.0224 36.6684 45.783 36.429 45.783 36.1347C45.783 35.8404 46.0224 35.601 46.3167 35.601H47.7685C48.0628 35.601 48.3021 35.8404 48.3021 36.1347C48.3021 36.429 48.0628 36.6684 47.7685 36.6684Z" fill="url(#paint7_linear_17_3)"/>
<path d="M42.1465 39.0098H40.6947C39.7538 39.0098 38.9883 39.7752 38.9883 40.7162C38.9883 41.6571 39.7538 42.4226 40.6947 42.4226H42.1465C43.0874 42.4226 43.8529 41.6571 43.8529 40.7162C43.8529 39.7752 43.0874 39.0098 42.1465 39.0098ZM42.1465 41.2499H40.6947C40.4004 41.2499 40.161 41.0105 40.161 40.7162C40.161 40.4219 40.4005 40.1825 40.6947 40.1825H42.1465C42.4408 40.1825 42.6802 40.4219 42.6802 40.7162C42.6801 41.0105 42.4407 41.2499 42.1465 41.2499Z" fill="url(#paint8_linear_17_3)"/>
<path d="M47.7685 39.0098H46.3167C45.3757 39.0098 44.6103 39.7752 44.6103 40.7162C44.6103 41.6571 45.3757 42.4226 46.3167 42.4226H47.7685C48.7094 42.4226 49.4749 41.6571 49.4749 40.7162C49.4749 39.7752 48.7094 39.0098 47.7685 39.0098ZM47.7685 41.2499H46.3167C46.0224 41.2499 45.783 41.0105 45.783 40.7162C45.783 40.4219 46.0224 40.1825 46.3167 40.1825H47.7685C48.0628 40.1825 48.3021 40.4219 48.3021 40.7162C48.3021 41.0105 48.0628 41.2499 47.7685 41.2499Z" fill="url(#paint9_linear_17_3)"/>
<path d="M42.1465 43.5913H40.6947C39.7538 43.5913 38.9883 44.3568 38.9883 45.2977C38.9883 46.2386 39.7538 47.0042 40.6947 47.0042H42.1465C43.0874 47.0042 43.8529 46.2386 43.8529 45.2977C43.8528 44.3568 43.0874 43.5913 42.1465 43.5913ZM42.1465 45.8314H40.6947C40.4004 45.8314 40.161 45.5919 40.161 45.2976C40.161 45.0033 40.4005 44.764 40.6947 44.764H42.1465C42.4408 44.764 42.6802 45.0033 42.6802 45.2976C42.6801 45.5919 42.4407 45.8314 42.1465 45.8314Z" fill="url(#paint10_linear_17_3)"/>
<path d="M47.7685 43.5913H46.3167C45.3757 43.5913 44.6103 44.3568 44.6103 45.2977C44.6103 46.2386 45.3757 47.0042 46.3167 47.0042H47.7685C48.7094 47.0042 49.4749 46.2386 49.4749 45.2977C49.4749 44.3568 48.7094 43.5913 47.7685 43.5913ZM47.7685 45.8314H46.3167C46.0224 45.8314 45.783 45.5919 45.783 45.2976C45.783 45.0033 46.0224 44.764 46.3167 44.764H47.7685C48.0628 44.764 48.3021 45.0033 48.3021 45.2976C48.3021 45.5919 48.0628 45.8314 47.7685 45.8314Z" fill="url(#paint11_linear_17_3)"/>
<path d="M22.3482 26.5767H20.3657C20.0419 26.5767 19.7794 26.8392 19.7794 27.163C19.7794 27.4868 20.0419 27.7493 20.3657 27.7493H22.3482C22.672 27.7493 22.9345 27.4868 22.9345 27.163C22.9345 26.8392 22.672 26.5767 22.3482 26.5767Z" fill="url(#paint12_linear_17_3)"/>
<path d="M22.3482 24.7595H20.3657C20.0419 24.7595 19.7794 25.022 19.7794 25.3458C19.7794 25.6697 20.0419 25.9322 20.3657 25.9322H22.3482C22.672 25.9322 22.9345 25.6697 22.9345 25.3458C22.9345 25.022 22.672 24.7595 22.3482 24.7595Z" fill="url(#paint13_linear_17_3)"/>
<path d="M22.3443 22.7439C22.0205 22.7439 21.758 23.0064 21.758 23.3302C21.758 23.6541 22.0205 23.9166 22.3443 23.9166H22.3521C22.6759 23.9166 22.9345 23.6541 22.9345 23.3302C22.9345 23.0064 22.6681 22.7439 22.3443 22.7439Z" fill="url(#paint14_linear_17_3)"/>
<defs>
<linearGradient id="paint0_linear_17_3" x1="-1.6677e-07" y1="34.4615" x2="70" y2="34.4615" gradientUnits="userSpaceOnUse">
<stop stop-color="#7E90FE"/>
<stop offset="1" stop-color="#9873FF"/>
</linearGradient>
<linearGradient id="paint1_linear_17_3" x1="17.028" y1="34.6923" x2="52.9722" y2="34.6923" gradientUnits="userSpaceOnUse">
<stop stop-color="#7E90FE"/>
<stop offset="1" stop-color="#9873FF"/>
</linearGradient>
<linearGradient id="paint2_linear_17_3" x1="33.4043" y1="27.4862" x2="52.9722" y2="27.4862" gradientUnits="userSpaceOnUse">
<stop stop-color="#7E90FE"/>
<stop offset="1" stop-color="#9873FF"/>
</linearGradient>
<linearGradient id="paint3_linear_17_3" x1="27.6228" y1="22.6187" x2="49.5965" y2="22.6187" gradientUnits="userSpaceOnUse">
<stop stop-color="#7E90FE"/>
<stop offset="1" stop-color="#9873FF"/>
</linearGradient>
<linearGradient id="paint4_linear_17_3" x1="38.9883" y1="30.407" x2="43.8529" y2="30.407" gradientUnits="userSpaceOnUse">
<stop stop-color="#7E90FE"/>
<stop offset="1" stop-color="#9873FF"/>
</linearGradient>
<linearGradient id="paint5_linear_17_3" x1="44.6103" y1="30.407" x2="49.4749" y2="30.407" gradientUnits="userSpaceOnUse">
<stop stop-color="#7E90FE"/>
<stop offset="1" stop-color="#9873FF"/>
</linearGradient>
<linearGradient id="paint6_linear_17_3" x1="38.9883" y1="36.1084" x2="43.8529" y2="36.1084" gradientUnits="userSpaceOnUse">
<stop stop-color="#7E90FE"/>
<stop offset="1" stop-color="#9873FF"/>
</linearGradient>
<linearGradient id="paint7_linear_17_3" x1="44.6103" y1="36.1084" x2="49.4749" y2="36.1084" gradientUnits="userSpaceOnUse">
<stop stop-color="#7E90FE"/>
<stop offset="1" stop-color="#9873FF"/>
</linearGradient>
<linearGradient id="paint8_linear_17_3" x1="38.9883" y1="40.69" x2="43.8529" y2="40.69" gradientUnits="userSpaceOnUse">
<stop stop-color="#7E90FE"/>
<stop offset="1" stop-color="#9873FF"/>
</linearGradient>
<linearGradient id="paint9_linear_17_3" x1="44.6103" y1="40.69" x2="49.4749" y2="40.69" gradientUnits="userSpaceOnUse">
<stop stop-color="#7E90FE"/>
<stop offset="1" stop-color="#9873FF"/>
</linearGradient>
<linearGradient id="paint10_linear_17_3" x1="38.9883" y1="45.2715" x2="43.8529" y2="45.2715" gradientUnits="userSpaceOnUse">
<stop stop-color="#7E90FE"/>
<stop offset="1" stop-color="#9873FF"/>
</linearGradient>
<linearGradient id="paint11_linear_17_3" x1="44.6103" y1="45.2715" x2="49.4749" y2="45.2715" gradientUnits="userSpaceOnUse">
<stop stop-color="#7E90FE"/>
<stop offset="1" stop-color="#9873FF"/>
</linearGradient>
<linearGradient id="paint12_linear_17_3" x1="19.7794" y1="27.154" x2="22.9345" y2="27.154" gradientUnits="userSpaceOnUse">
<stop stop-color="#7E90FE"/>
<stop offset="1" stop-color="#9873FF"/>
</linearGradient>
<linearGradient id="paint13_linear_17_3" x1="19.7794" y1="25.3368" x2="22.9345" y2="25.3368" gradientUnits="userSpaceOnUse">
<stop stop-color="#7E90FE"/>
<stop offset="1" stop-color="#9873FF"/>
</linearGradient>
<linearGradient id="paint14_linear_17_3" x1="21.758" y1="23.3212" x2="22.9345" y2="23.3212" gradientUnits="userSpaceOnUse">
<stop stop-color="#7E90FE"/>
<stop offset="1" stop-color="#9873FF"/>
</linearGradient>
</defs>
</svg>
