<svg width="70" height="70" viewBox="0 0 70 70" fill="none" xmlns="http://www.w3.org/2000/svg">
<rect width="70" height="70" rx="8" fill="url(#paint0_linear_17_5)" fill-opacity="0.1"/>
<g clip-path="url(#clip0_17_5)">
<path d="M54.4139 34.414H44.9797V33.0809H47.5251C47.8487 33.0809 48.111 32.8185 48.111 32.4949C48.111 32.1713 47.8487 31.909 47.5251 31.909H44.9797V30.5758H46.7469C47.4053 30.5758 48.0243 30.3195 48.4897 29.8539L52.3433 26.0003C52.5944 26.1254 52.8727 26.192 53.1615 26.192C53.6526 26.192 54.1142 26.0007 54.4615 25.6536C54.8088 25.3063 55 24.8446 55 24.3536C55 23.8625 54.8088 23.4008 54.4615 23.0536C54.1143 22.7063 53.6526 22.515 53.1615 22.515C52.6704 22.515 52.2088 22.7063 51.8615 23.0535C51.5142 23.4007 51.323 23.8624 51.323 24.3535C51.323 24.6422 51.3896 24.9206 51.5146 25.1717L47.6611 29.0253C47.4169 29.2694 47.0922 29.4039 46.7468 29.4039H44.9797V28.1111C44.9797 26.4068 43.593 25.0202 41.8887 25.0202H40.5959V19.8331C41.3231 19.5879 41.8484 18.8998 41.8484 18.0909C41.8484 17.0772 41.0237 16.2525 40.01 16.2525C38.9963 16.2525 38.1716 17.0773 38.1716 18.0909C38.1716 18.8998 38.6969 19.5878 39.4241 19.8331V25.0201H38.0909V22.4747C38.0909 22.1511 37.8286 21.8888 37.505 21.8888C37.1814 21.8888 36.9191 22.1511 36.9191 22.4747V25.0201H35.5859V15.5859C35.5859 15.2623 35.3235 15 34.9999 15C34.6763 15 34.414 15.2623 34.414 15.5859V25.0201H33.0809V22.4747C33.0809 22.1511 32.8185 21.8888 32.4949 21.8888C32.1713 21.8888 31.909 22.1511 31.909 22.4747V25.0201H30.5759V23.253C30.5759 22.5947 30.3195 21.9757 29.8539 21.5102L25.999 17.6553C26.3396 16.9677 26.2254 16.1104 25.6536 15.5385C24.9368 14.8217 23.7704 14.8218 23.0536 15.5385C22.3369 16.2553 22.3369 17.4216 23.0536 18.1385C23.4121 18.4969 23.8829 18.6761 24.3536 18.6761C24.634 18.6761 24.9138 18.611 25.1704 18.4839L29.0253 22.3389C29.2696 22.583 29.404 22.9077 29.404 23.253V25.0201H28.1112C27.8499 25.0201 27.59 25.0529 27.3387 25.1175C27.0254 25.1982 26.8367 25.5176 26.9173 25.8311C26.9979 26.1445 27.3175 26.3332 27.6308 26.2525C27.7867 26.2124 27.9482 26.192 28.1111 26.192H41.8887C42.9469 26.192 43.8078 27.0529 43.8078 28.111V41.8887C43.8078 42.0515 43.7875 42.2129 43.7475 42.3686C43.6669 42.6821 43.8557 43.0015 44.169 43.082C44.2179 43.0946 44.267 43.1006 44.3154 43.1006C44.5764 43.1006 44.8144 42.9249 44.8824 42.6604C44.9469 42.4094 44.9797 42.1497 44.9797 41.8886V40.5958H50.1667C50.4119 41.323 51.0999 41.8483 51.9088 41.8483C52.9226 41.8483 53.7473 41.0236 53.7473 40.0099C53.7473 38.9962 52.9225 38.1715 51.9088 38.1715C51.0999 38.1715 50.412 38.6968 50.1667 39.424H44.9797V38.0908H47.525C47.8486 38.0908 48.111 37.8284 48.111 37.5048C48.111 37.1812 47.8486 36.9189 47.525 36.9189H44.9797V35.5859H54.4139C54.7375 35.5859 54.9999 35.3235 54.9999 34.9999C54.9999 34.6763 54.7375 34.414 54.4139 34.414ZM52.6901 23.8822C52.816 23.7563 52.9834 23.687 53.1614 23.687C53.3395 23.687 53.5068 23.7563 53.6327 23.8822C53.7587 24.0082 53.828 24.1755 53.828 24.3536C53.828 24.5316 53.7587 24.6989 53.6327 24.8249C53.5068 24.9508 53.3395 25.0201 53.1614 25.0201C52.9834 25.0201 52.816 24.9508 52.6901 24.8249C52.5642 24.6989 52.4949 24.5316 52.4949 24.3536C52.4949 24.1755 52.5642 24.0081 52.6901 23.8822ZM24.8249 17.3099C24.565 17.5697 24.1422 17.5698 23.8822 17.3098C23.6222 17.0499 23.6222 16.627 23.8822 16.3672C24.0122 16.2372 24.1828 16.1723 24.3536 16.1723C24.5243 16.1723 24.695 16.2373 24.8249 16.3672C25.0848 16.6271 25.0848 17.05 24.8249 17.3099ZM40.01 18.7575C39.6425 18.7575 39.3434 18.4584 39.3434 18.0909C39.3434 17.7234 39.6424 17.4244 40.01 17.4244C40.3776 17.4244 40.6765 17.7234 40.6765 18.0909C40.6765 18.4584 40.3775 18.7575 40.01 18.7575ZM51.9089 39.3434C52.2765 39.3434 52.5755 39.6425 52.5755 40.01C52.5755 40.3776 52.2764 40.6765 51.9089 40.6765C51.5414 40.6765 51.2424 40.3775 51.2424 40.01C51.2423 39.6424 51.5413 39.3434 51.9089 39.3434Z" fill="url(#paint1_linear_17_5)"/>
<path d="M46.9463 51.8615C46.3745 51.2897 45.5171 51.1755 44.8295 51.5161L40.9746 47.6611C40.7304 47.417 40.5959 47.0923 40.5959 46.747V44.9799H41.8887C42.15 44.9799 42.4099 44.947 42.6611 44.8824C42.9744 44.8018 43.1631 44.4824 43.0825 44.1689C43.0018 43.8556 42.6825 43.6669 42.369 43.7475C42.2132 43.7876 42.0516 43.8079 41.8887 43.8079H28.1111C27.0529 43.8079 26.1921 42.947 26.1921 41.8888V28.1112C26.1921 27.9484 26.2124 27.7868 26.2525 27.6311C26.3332 27.3177 26.1445 26.9983 25.8311 26.9176C25.5177 26.8369 25.1982 27.0255 25.1176 27.3389C25.0529 27.59 25.0202 27.8498 25.0202 28.1112V29.4041H19.8331C19.5879 28.6769 18.8998 28.1516 18.0909 28.1516C17.0772 28.1516 16.2525 28.9762 16.2525 29.99C16.2525 31.0037 17.0773 31.8284 18.0909 31.8284C18.8998 31.8284 19.5878 31.3031 19.8331 30.5759H25.0201V31.9091H22.4747C22.1511 31.9091 21.8888 32.1715 21.8888 32.4951C21.8888 32.8186 22.1511 33.081 22.4747 33.081H25.0201V34.4141H15.5859C15.2623 34.4141 15 34.6765 15 35C15 35.3236 15.2623 35.586 15.5859 35.586H25.0201V36.9191H22.4747C22.1511 36.9191 21.8888 37.1814 21.8888 37.505C21.8888 37.8286 22.1511 38.091 22.4747 38.091H25.0201V39.4242H23.2529C22.5946 39.4242 21.9756 39.6805 21.5101 40.146L17.6566 43.9996C17.4055 43.8745 17.1271 43.808 16.8384 43.808C16.3473 43.808 15.8856 43.9992 15.5384 44.3464C15.1912 44.6937 15 45.1554 15 45.6464C15 46.1374 15.1912 46.5991 15.5385 46.9464C15.8857 47.2937 16.3474 47.4848 16.8385 47.4848C17.3296 47.4848 17.7912 47.2936 18.1385 46.9464C18.4858 46.5991 18.677 46.1375 18.677 45.6464C18.677 45.3577 18.6105 45.0793 18.4854 44.8282L22.339 40.9746C22.5831 40.7305 22.9078 40.596 23.2532 40.596H25.0204V41.8888C25.0204 43.5931 26.407 44.9797 28.1113 44.9797H29.4041V50.1667C28.6769 50.4119 28.1516 51.1 28.1516 51.9089C28.1516 52.9226 28.9764 53.7473 29.99 53.7473C31.0037 53.7473 31.8284 52.9226 31.8284 51.9089C31.8284 51.1 31.3031 50.412 30.576 50.1667V44.9797H31.9091V47.5251C31.9091 47.8487 32.1714 48.111 32.495 48.111C32.8186 48.111 33.0809 47.8487 33.0809 47.5251V44.9797H34.414V54.414C34.414 54.7376 34.6763 55 34.9999 55C35.3235 55 35.5859 54.7376 35.5859 54.414V44.9799H36.919V47.5252C36.919 47.8488 37.1813 48.1112 37.5049 48.1112C37.8285 48.1112 38.0908 47.8488 38.0908 47.5252V44.9799H39.424V46.747C39.424 47.4053 39.6804 48.0243 40.1459 48.4898L44.0008 52.3447C43.6603 53.0322 43.7744 53.8896 44.3463 54.4615C44.7046 54.8199 45.1755 54.999 45.6463 54.999C46.1171 54.999 46.5879 54.8199 46.9463 54.4615C47.6631 53.7447 47.6631 52.5783 46.9463 51.8615ZM18.0909 30.6565C17.7233 30.6565 17.4244 30.3575 17.4244 29.99C17.4244 29.6224 17.7234 29.3234 18.0909 29.3234C18.4584 29.3234 18.7575 29.6225 18.7575 29.99C18.7576 30.3576 18.4585 30.6565 18.0909 30.6565ZM17.3098 46.1177C17.1838 46.2437 17.0165 46.313 16.8384 46.313C16.6604 46.313 16.493 46.2437 16.3671 46.1177C16.2412 45.9918 16.1719 45.8245 16.1719 45.6464C16.1719 45.4684 16.2412 45.301 16.3671 45.1751C16.493 45.0491 16.6604 44.9799 16.8384 44.9799C17.0165 44.9799 17.1838 45.0491 17.3098 45.1751C17.4357 45.301 17.505 45.4684 17.505 45.6464C17.505 45.8245 17.4357 45.9919 17.3098 46.1177ZM30.6564 51.909C30.6564 52.2765 30.3574 52.5756 29.9899 52.5756C29.6223 52.5756 29.3233 52.2765 29.3233 51.909C29.3233 51.5415 29.6224 51.2425 29.9899 51.2425C30.3574 51.2425 30.6564 51.5415 30.6564 51.909ZM46.1177 53.6329C45.8578 53.8928 45.4349 53.8927 45.175 53.6329C44.915 53.3729 44.915 52.9501 45.175 52.6902C45.305 52.5603 45.4757 52.4953 45.6464 52.4953C45.8171 52.4953 45.9878 52.5603 46.1177 52.6902C46.3775 52.9501 46.3775 53.3729 46.1177 53.6329Z" fill="url(#paint2_linear_17_5)"/>
<path d="M41.2222 33.4346C41.2222 32.1814 40.3056 31.12 39.0508 30.775C39.0879 30.6218 39.1086 30.4643 39.1086 30.3032C39.1086 29.1168 38.0555 28.1516 36.7613 28.1516C36.0602 28.1516 35.4305 28.4351 35 28.8832C34.5695 28.4351 33.9397 28.1516 33.2387 28.1516C31.9444 28.1516 30.8914 29.1168 30.8914 30.3032C30.8914 30.4643 30.912 30.6218 30.9492 30.775C29.6944 31.1199 28.7778 32.1814 28.7778 33.4346C28.7778 34.047 28.9946 34.6248 29.3949 35.102C29.0035 35.6088 28.7778 36.224 28.7778 36.879C28.7777 37.8752 29.31 38.8055 30.1868 39.3825C30.1868 39.383 30.1868 39.3834 30.1868 39.3839C30.1868 40.743 31.3978 41.8487 32.8864 41.8487C33.7419 41.8487 34.5051 41.4831 35 40.9145C35.4949 41.4831 36.2581 41.8487 37.1136 41.8487C38.5462 41.8487 39.7211 40.8245 39.8075 39.536C40.6776 39.0312 41.2222 38.1469 41.2222 37.192C41.2222 36.4897 40.9227 35.8197 40.4073 35.3133C40.9226 34.8069 41.2222 34.1368 41.2222 33.4346ZM39.1484 35.8314C39.713 36.1294 40.0501 36.6381 40.0501 37.192C40.0501 37.6051 39.8581 37.9991 39.5339 38.2937C39.2258 37.7233 38.6814 37.2692 37.9935 37.0531C37.6849 36.9562 37.3559 37.1278 37.2589 37.4365C37.1619 37.7452 37.3336 38.0742 37.6423 38.1711C38.2396 38.3588 38.641 38.8463 38.641 39.384C38.641 40.0969 37.9557 40.6769 37.1133 40.6769C36.2709 40.6769 35.5856 40.0969 35.5856 39.384V35.6264C35.5856 34.9135 36.2709 34.3336 37.1133 34.3336C37.4369 34.3336 37.6992 34.0713 37.6992 33.7477C37.6992 33.4241 37.4369 33.1617 37.1133 33.1617C36.5466 33.1617 36.0203 33.3224 35.5856 33.5959V32.8475C35.5856 32.5239 35.3233 32.2615 34.9997 32.2615C34.6761 32.2615 34.4137 32.5239 34.4137 32.8475V36.1003C34.2166 35.9766 34.0003 35.8742 33.7664 35.8006C33.4575 35.7036 33.1288 35.8753 33.0318 36.1839C32.9348 36.4927 33.1064 36.8216 33.4151 36.9186C34.0124 37.1063 34.4137 37.5938 34.4137 38.1314V39.3839C34.4137 40.0968 33.7284 40.6768 32.8861 40.6768C32.0437 40.6768 31.3584 40.0968 31.3584 39.3839C31.3584 39.0784 31.4879 38.7813 31.7231 38.5476C31.9526 38.3195 31.9537 37.9484 31.7256 37.7189C31.4974 37.4894 31.1265 37.4883 30.897 37.7164C30.7566 37.856 30.6357 38.0085 30.5352 38.1706C30.1652 37.8206 29.9492 37.3602 29.9492 36.8788C29.9492 36.0107 30.6306 35.2481 31.6061 35.0242C31.9215 34.9519 32.1185 34.6375 32.0462 34.3221C31.9738 34.0067 31.6594 33.8097 31.3441 33.8821C30.9513 33.9721 30.5898 34.1225 30.2692 34.3199C30.0613 34.0589 29.9493 33.7531 29.9493 33.4344C29.9495 32.5531 30.785 31.8356 31.8149 31.8288C31.8202 31.8289 31.8254 31.8296 31.8306 31.8296C31.9643 31.8296 32.0988 31.7841 32.2088 31.6909C32.4334 31.5007 32.4785 31.1781 32.3277 30.9354C32.3233 30.9282 32.3192 30.9208 32.3145 30.9139C32.3121 30.9104 32.3092 30.907 32.3067 30.9035C32.2977 30.8907 32.2884 30.8782 32.2783 30.8662C32.278 30.8658 32.2777 30.8654 32.2774 30.8651C32.1797 30.7496 32.0631 30.5583 32.0631 30.3032C32.0631 29.7629 32.5904 29.3234 33.2384 29.3234C33.8865 29.3234 34.4138 29.7629 34.4138 30.3032C34.4138 30.6268 34.6762 30.8891 34.9998 30.8891C35.3234 30.8891 35.5857 30.6268 35.5857 30.3032C35.5857 29.7629 36.113 29.3234 36.7611 29.3234C37.4091 29.3234 37.9365 29.7629 37.9365 30.3032C37.9365 30.4475 37.8987 30.5707 37.8486 30.6719C37.5153 30.7034 37.193 30.7839 36.8869 30.913C36.5887 31.0387 36.449 31.3824 36.5747 31.6806C36.7004 31.9787 37.044 32.1186 37.3423 31.9928C37.5955 31.886 37.868 31.8311 38.1522 31.8289C38.1579 31.8291 38.1634 31.8296 38.169 31.8296C38.1743 31.8296 38.1794 31.8289 38.1847 31.8288C39.2146 31.8355 40.0501 32.5531 40.0501 33.4344C40.0501 33.9884 39.713 34.497 39.1484 34.795C38.9562 34.8964 38.8359 35.0959 38.8359 35.3132C38.8359 35.5306 38.9562 35.73 39.1484 35.8314Z" fill="url(#paint3_linear_17_5)"/>
</g>
<defs>
<linearGradient id="paint0_linear_17_5" x1="-1.6677e-07" y1="34.4615" x2="70" y2="34.4615" gradientUnits="userSpaceOnUse">
<stop stop-color="#7E90FE"/>
<stop offset="1" stop-color="#9873FF"/>
</linearGradient>
<linearGradient id="paint1_linear_17_5" x1="22.5161" y1="28.8341" x2="55" y2="28.8341" gradientUnits="userSpaceOnUse">
<stop stop-color="#7E90FE"/>
<stop offset="1" stop-color="#9873FF"/>
</linearGradient>
<linearGradient id="paint2_linear_17_5" x1="15" y1="40.7333" x2="47.4839" y2="40.7333" gradientUnits="userSpaceOnUse">
<stop stop-color="#7E90FE"/>
<stop offset="1" stop-color="#9873FF"/>
</linearGradient>
<linearGradient id="paint3_linear_17_5" x1="28.7778" y1="34.8948" x2="41.2222" y2="34.8948" gradientUnits="userSpaceOnUse">
<stop stop-color="#7E90FE"/>
<stop offset="1" stop-color="#9873FF"/>
</linearGradient>
<clipPath id="clip0_17_5">
<rect width="40" height="40" fill="white" transform="translate(15 15)"/>
</clipPath>
</defs>
</svg>
