<svg width="18" height="21" viewBox="0 0 18 21" fill="none" xmlns="http://www.w3.org/2000/svg">
<path d="M12 8.5C12 9.29565 11.6839 10.0587 11.1213 10.6213C10.5587 11.1839 9.79565 11.5 9 11.5C8.20435 11.5 7.44129 11.1839 6.87868 10.6213C6.31607 10.0587 6 9.29565 6 8.5C6 7.70435 6.31607 6.94129 6.87868 6.37868C7.44129 5.81607 8.20435 5.5 9 5.5C9.79565 5.5 10.5587 5.81607 11.1213 6.37868C11.6839 6.94129 12 7.70435 12 8.5Z" stroke="url(#paint0_linear_31_9)" stroke-width="1.5" stroke-linecap="round" stroke-linejoin="round"/>
<path d="M16.5 8.5C16.5 15.642 9 19.75 9 19.75C9 19.75 1.5 15.642 1.5 8.5C1.5 6.51088 2.29018 4.60322 3.6967 3.1967C5.10322 1.79018 7.01088 1 9 1C10.9891 1 12.8968 1.79018 14.3033 3.1967C15.7098 4.60322 16.5 6.51088 16.5 8.5Z" stroke="url(#paint1_linear_31_9)" stroke-width="1.5" stroke-linecap="round" stroke-linejoin="round"/>
<defs>
<linearGradient id="paint0_linear_31_9" x1="6" y1="8.45385" x2="12" y2="8.45385" gradientUnits="userSpaceOnUse">
<stop stop-color="#7E90FE"/>
<stop offset="1" stop-color="#9873FF"/>
</linearGradient>
<linearGradient id="paint1_linear_31_9" x1="1.5" y1="10.2308" x2="16.5" y2="10.2308" gradientUnits="userSpaceOnUse">
<stop stop-color="#7E90FE"/>
<stop offset="1" stop-color="#9873FF"/>
</linearGradient>
</defs>
</svg>
