<svg width="70" height="70" viewBox="0 0 70 70" fill="none" xmlns="http://www.w3.org/2000/svg">
<rect width="70" height="70" rx="8" fill="url(#paint0_linear_17_4)" fill-opacity="0.1"/>
<g clip-path="url(#clip0_17_4)">
<path d="M49.9863 39.7473C50.4905 38.1913 50.7465 36.5683 50.7465 34.9146C50.7465 33.2669 50.4923 31.6498 49.9912 30.0986C51.0932 29.6848 52.0951 29.0222 52.927 28.1412C54.3647 26.6193 55.1233 24.6283 55.0635 22.5357C54.9396 18.2153 51.3245 14.8019 47.0035 14.9252C44.9106 14.985 42.9667 15.8563 41.529 17.3785C40.803 18.1473 40.2506 19.0357 39.8889 19.9963C38.3374 19.4956 36.7203 19.2413 35.072 19.2413C33.4229 19.2413 31.8045 19.4962 30.2521 19.9976C29.1324 17.0346 26.2668 14.9219 22.9166 14.9219C18.5944 14.9219 15.0781 18.4381 15.0781 22.76C15.0781 26.1099 17.1912 28.9752 20.1541 30.0946C19.6524 31.6474 19.3979 33.2657 19.3979 34.9146C19.3979 36.5683 19.6539 38.1913 20.1581 39.7473C17.193 40.8658 15.0781 43.7323 15.0781 47.0838C15.0781 48.2636 15.3339 49.3979 15.8383 50.4551C15.9778 50.7471 16.3275 50.871 16.6196 50.7316C16.9113 50.5921 17.0352 50.2424 16.8961 49.9503C16.4673 49.0519 16.25 48.0875 16.25 47.0838C16.25 43.4082 19.2407 40.4178 22.9166 40.4178C26.5927 40.4178 29.5835 43.4082 29.5835 47.0838C29.5835 50.7596 26.5927 53.7501 22.9166 53.7501C21.2399 53.7501 19.6375 53.1254 18.4045 51.991C18.1662 51.7719 17.7954 51.7875 17.5766 52.0255C17.3575 52.2638 17.3727 52.6343 17.6111 52.8534C19.061 54.1874 20.9451 54.9219 22.9166 54.9219C26.2717 54.9219 29.1409 52.8028 30.257 49.8331C31.8076 50.3336 33.4244 50.5878 35.072 50.5878C36.72 50.5878 38.3371 50.3336 39.8877 49.8334C41.0038 52.8031 43.873 54.9219 47.2281 54.9219C51.5503 54.9219 55.0666 51.4057 55.0666 47.0838C55.0666 43.7323 52.9517 40.8655 49.9863 39.7473ZM42.381 18.183C43.6036 16.8884 45.2573 16.1475 47.0374 16.0965C47.1021 16.0947 47.1662 16.0938 47.2309 16.0938C50.8191 16.0938 53.7888 18.9597 53.892 22.569C53.9429 24.3488 53.2978 26.0419 52.0752 27.3367C50.8527 28.6313 49.199 29.3723 47.4189 29.4232C47.3542 29.4251 47.2898 29.426 47.2254 29.426C43.6371 29.426 40.6675 26.5601 40.5643 22.9508C40.513 21.171 41.1585 19.4775 42.381 18.183ZM39.5591 48.7079C38.1153 49.1773 36.6086 49.4159 35.072 49.4159C33.5361 49.4159 32.0294 49.1773 30.5857 48.7079C30.6964 48.1836 30.7553 47.6404 30.7553 47.0838C30.7553 42.7619 27.2388 39.2459 22.9166 39.2459C22.3566 39.2459 21.8103 39.3055 21.2833 39.4175C20.8099 37.9685 20.5698 36.4563 20.5698 34.9146C20.5698 33.3777 20.8087 31.8704 21.279 30.4251C21.8073 30.538 22.3551 30.5979 22.9166 30.5979C24.2594 30.5979 25.5841 30.2524 26.7484 29.599C27.0304 29.4406 27.1308 29.0836 26.9724 28.8013C26.814 28.519 26.4569 28.4189 26.1746 28.5773C25.1853 29.1324 24.0585 29.426 22.9166 29.426C19.2404 29.426 16.25 26.4356 16.25 22.7597C16.25 19.0842 19.2407 16.0938 22.9166 16.0938C26.5927 16.0938 29.5835 19.0842 29.5835 22.76C29.5835 24.2978 29.0473 25.798 28.0737 26.9849C27.8684 27.2348 27.905 27.6041 28.1552 27.8095C28.4052 28.0145 28.7744 27.9782 28.9798 27.728C30.1245 26.3324 30.7553 24.5679 30.7553 22.7597C30.7553 22.1985 30.6952 21.6507 30.5826 21.1224C32.0276 20.6522 33.5352 20.4132 35.072 20.4132C36.6086 20.4132 38.1156 20.6519 39.56 21.1215C39.4321 21.7264 39.3747 22.3505 39.3927 22.9843C39.5145 27.2284 43.0057 30.5982 47.2251 30.5979C47.3005 30.5979 47.3764 30.5969 47.4524 30.5945C47.9328 30.5808 48.4052 30.5237 48.8657 30.4264C49.3357 31.8711 49.5746 33.3783 49.5746 34.9146C49.5746 36.4563 49.3342 37.9685 48.8611 39.4175C48.3341 39.3051 47.7878 39.2459 47.2281 39.2459C42.9059 39.2459 39.3897 42.7619 39.3897 47.0838C39.3897 47.6407 39.4483 48.1839 39.5591 48.7079ZM47.2281 53.7501C43.552 53.7501 40.5616 50.7596 40.5616 47.0841C40.5616 43.4082 43.552 40.4178 47.2281 40.4178C50.9043 40.4178 53.8947 43.4082 53.8947 47.0841C53.8947 50.7596 50.9043 53.7501 47.2281 53.7501Z" fill="url(#paint1_linear_17_4)"/>
<path d="M26.9064 19.301C26.7044 19.1637 26.4386 19.1658 26.239 19.3068C26.0394 19.4475 25.8258 19.565 25.6012 19.6581C24.7961 19.0282 23.6294 19.0355 22.8302 19.7304C22.4148 20.0918 22.1551 20.5913 22.0947 21.1309C21.235 21.003 20.458 20.5297 19.9484 19.804C19.8269 19.6312 19.6219 19.5376 19.4122 19.5577C19.2019 19.5781 19.0191 19.71 18.9334 19.9028C18.9166 19.9407 18.5223 20.8416 18.5727 21.9442C18.6111 22.788 18.9129 23.8756 20.0137 24.7155C19.6173 24.8433 19.1986 24.9025 18.7814 24.8858C18.5098 24.8751 18.2672 25.0518 18.1939 25.313C18.1207 25.5742 18.2364 25.8516 18.4735 25.9835C19.3927 26.494 20.3775 26.7498 21.3397 26.7498C22.2641 26.7498 23.1674 26.5136 23.9712 26.0409C24.9792 25.4479 25.7116 24.54 26.1093 23.4313C26.1218 23.4032 26.1322 23.3739 26.1404 23.3437C26.3449 22.7416 26.452 22.0821 26.452 21.3826C26.452 21.3521 26.4511 21.3213 26.4499 21.2908C26.7843 20.8965 27.023 20.4293 27.1463 19.9242C27.2037 19.6868 27.1084 19.4384 26.9064 19.301ZM25.2621 21.1998C25.2737 21.2609 25.2798 21.3241 25.2798 21.3845C25.2798 21.9588 25.1944 22.4907 25.0317 22.9714C25.0229 22.9934 25.0155 23.0163 25.0094 23.0398C24.7052 23.8912 24.1513 24.5751 23.377 25.0307C22.6684 25.4479 21.8551 25.6255 21.0263 25.5654C21.2161 25.4714 21.3995 25.3646 21.575 25.2456C21.7508 25.1259 21.8484 24.9206 21.8295 24.7085C21.8106 24.4964 21.6781 24.3114 21.4837 24.2251C20.3897 23.7389 19.8047 22.9656 19.7451 21.9271C19.7329 21.7144 19.7436 21.5102 19.7665 21.3231C20.5725 21.9967 21.6049 22.3641 22.6825 22.3363C23.0002 22.3281 23.2535 22.0684 23.2535 21.7507V21.3952C23.2535 21.3927 23.2535 21.39 23.2535 21.3872C23.2495 21.0909 23.3752 20.8092 23.5992 20.6148C24.0179 20.2507 24.6545 20.295 25.0186 20.7137C25.0918 20.7976 25.1852 20.8571 25.2871 20.8886C25.2514 20.9868 25.242 21.094 25.2621 21.1998Z" fill="url(#paint2_linear_17_4)"/>
<path d="M45.3 23.222H46.1307V26.716C46.1307 27.0394 46.3931 27.3019 46.7166 27.3019C47.0404 27.3019 47.3026 27.0394 47.3026 26.716V23.222H48.2074C48.5309 23.222 48.7933 22.9595 48.7933 22.6361C48.7933 22.3126 48.5309 22.0501 48.2074 22.0501H47.3026V20.4107C47.3026 19.848 47.7606 19.3899 48.3237 19.3899H49.0823C49.4058 19.3899 49.6683 19.1274 49.6683 18.804C49.6683 18.4802 49.4058 18.218 49.0823 18.218H48.3237C47.1146 18.218 46.1307 19.2016 46.1307 20.4107V22.0501H45.3C44.9765 22.0501 44.7141 22.3126 44.7141 22.6361C44.7141 22.9595 44.9765 23.222 45.3 23.222Z" fill="url(#paint3_linear_17_4)"/>
<path d="M21.5872 50.1143C21.7267 50.1143 21.8662 50.0783 21.9904 50.0066L25.9787 47.7028C26.2274 47.5593 26.3818 47.2917 26.3818 47.0045C26.3818 46.7177 26.2274 46.45 25.9787 46.3066L21.9904 44.0028C21.7419 43.8591 21.4331 43.8591 21.1844 44.0028C20.9357 44.1463 20.7809 44.4139 20.7809 44.7011V49.3083C20.7809 49.5955 20.9357 49.8631 21.1844 50.0066C21.3086 50.0786 21.4478 50.1143 21.5872 50.1143ZM21.9528 45.3346L24.8447 47.0048L21.9528 48.6751V45.3346Z" fill="url(#paint4_linear_17_4)"/>
<path d="M49.7742 42.9341H44.682C43.7976 42.9341 43.078 43.6537 43.078 44.5384V49.6296C43.078 50.5144 43.7976 51.234 44.682 51.234H49.7742C50.6586 51.234 51.3782 50.5144 51.3782 49.6296V44.5384C51.3782 43.6537 50.6586 42.9341 49.7742 42.9341ZM50.2063 49.6296C50.2063 49.8683 50.0125 50.0621 49.7742 50.0621H44.682C44.4437 50.0621 44.2499 49.8683 44.2499 49.6296V44.5384C44.2499 44.3001 44.4437 44.106 44.682 44.106H49.7742C50.0125 44.106 50.2063 44.3001 50.2063 44.5384V49.6296Z" fill="url(#paint5_linear_17_4)"/>
<path d="M47.2281 45.3127C46.2515 45.3127 45.4568 46.1074 45.4568 47.084C45.4568 48.0606 46.2515 48.8549 47.2281 48.8549C48.2047 48.8549 48.9993 48.0606 48.9993 47.084C48.9993 46.1074 48.2047 45.3127 47.2281 45.3127ZM47.2281 47.683C46.8976 47.683 46.6287 47.4142 46.6287 47.084C46.6287 46.7535 46.8976 46.4846 47.2281 46.4846C47.5586 46.4846 47.8275 46.7535 47.8275 47.084C47.8275 47.4142 47.5586 47.683 47.2281 47.683Z" fill="url(#paint6_linear_17_4)"/>
<path d="M39.3128 28.8354C38.989 28.8354 38.7268 29.0979 38.7268 29.4214V29.6841C37.901 30.1709 37.0328 30.5911 36.1401 30.9351C35.4254 31.2103 34.6872 31.4392 33.9404 31.6184C33.8257 31.5302 33.6829 31.4767 33.5272 31.4767H30.8444C30.1962 31.4767 29.6692 32.0041 29.6692 32.652V35.7291C29.6692 36.3773 30.1962 36.9043 30.8444 36.9043H31.3806L31.5839 40.8112C31.6 41.124 31.8588 41.3666 32.1686 41.3666C32.1787 41.3666 32.189 41.3663 32.1994 41.3657C32.5226 41.3489 32.771 41.0733 32.7542 40.7501L32.554 36.9043H33.5272C33.6826 36.9043 33.8257 36.8512 33.9401 36.763C34.4156 36.8778 34.8886 37.0126 35.351 37.1661C35.6583 37.2678 35.9897 37.1015 36.0916 36.7944C36.1936 36.4871 36.0269 36.1554 35.7199 36.0538C35.2234 35.889 34.7156 35.744 34.2047 35.621V32.7606C35.0049 32.569 35.7956 32.3233 36.5613 32.0285C37.3016 31.7432 38.0267 31.409 38.7265 31.0306V37.352C38.4689 37.2128 38.2086 37.0801 37.9465 36.9541C37.6547 36.8137 37.3047 36.9364 37.1646 37.2281C37.0242 37.5198 37.1469 37.8699 37.4387 38.0103C37.8751 38.2202 38.3066 38.4516 38.7265 38.6981V38.9597C38.7265 39.2835 38.989 39.5456 39.3125 39.5456C39.6359 39.5456 39.8984 39.2835 39.8984 38.9597V29.4214C39.8987 29.0979 39.6362 28.8354 39.3128 28.8354ZM33.0331 35.7321L30.8411 35.7291L30.8444 32.6486H33.0331V35.7321Z" fill="url(#paint7_linear_17_4)"/>
</g>
<defs>
<linearGradient id="paint0_linear_17_4" x1="-1.6677e-07" y1="34.4615" x2="70" y2="34.4615" gradientUnits="userSpaceOnUse">
<stop stop-color="#7E90FE"/>
<stop offset="1" stop-color="#9873FF"/>
</linearGradient>
<linearGradient id="paint1_linear_17_4" x1="15.0781" y1="34.6142" x2="55.0668" y2="34.6142" gradientUnits="userSpaceOnUse">
<stop stop-color="#7E90FE"/>
<stop offset="1" stop-color="#9873FF"/>
</linearGradient>
<linearGradient id="paint2_linear_17_4" x1="18.1721" y1="22.9153" x2="27.1628" y2="22.9153" gradientUnits="userSpaceOnUse">
<stop stop-color="#7E90FE"/>
<stop offset="1" stop-color="#9873FF"/>
</linearGradient>
<linearGradient id="paint3_linear_17_4" x1="44.7141" y1="22.6901" x2="49.6683" y2="22.6901" gradientUnits="userSpaceOnUse">
<stop stop-color="#7E90FE"/>
<stop offset="1" stop-color="#9873FF"/>
</linearGradient>
<linearGradient id="paint4_linear_17_4" x1="20.7809" y1="46.9568" x2="26.3818" y2="46.9568" gradientUnits="userSpaceOnUse">
<stop stop-color="#7E90FE"/>
<stop offset="1" stop-color="#9873FF"/>
</linearGradient>
<linearGradient id="paint5_linear_17_4" x1="43.078" y1="47.0202" x2="51.3782" y2="47.0202" gradientUnits="userSpaceOnUse">
<stop stop-color="#7E90FE"/>
<stop offset="1" stop-color="#9873FF"/>
</linearGradient>
<linearGradient id="paint6_linear_17_4" x1="45.4568" y1="47.0566" x2="48.9993" y2="47.0566" gradientUnits="userSpaceOnUse">
<stop stop-color="#7E90FE"/>
<stop offset="1" stop-color="#9873FF"/>
</linearGradient>
<linearGradient id="paint7_linear_17_4" x1="29.6692" y1="35.0046" x2="39.8984" y2="35.0046" gradientUnits="userSpaceOnUse">
<stop stop-color="#7E90FE"/>
<stop offset="1" stop-color="#9873FF"/>
</linearGradient>
<clipPath id="clip0_17_4">
<rect width="40" height="40" fill="white" transform="translate(15 15)"/>
</clipPath>
</defs>
</svg>
