<?xml version="1.0" encoding="utf-8"?>
<!-- Generator: Adobe Illustrator 24.1.1, SVG Export Plug-In . SVG Version: 6.00 Build 0)  -->
<svg version="1.1" id="Layer_1" xmlns="http://www.w3.org/2000/svg" xmlns:xlink="http://www.w3.org/1999/xlink" x="0px" y="0px"
	 viewBox="0 0 801.18 517.06" style="enable-background:new 0 0 801.18 517.06;" xml:space="preserve">
<style type="text/css">
	.st0{fill:#E9ECF1;}
	.st1{fill:#FEF3F3;}
	.st2{fill:#E69B9B;}
	.st3{fill:#FFFFFF;}
	.st4{fill:#F3BABA;}
	.st5{fill:#304982;}
	.st6{fill:#4D6BB3;}
	.st7{fill:#A5C2E6;}
	.st8{fill:#E3E9F6;}
	.st9{fill:#E16060;}
	.st10{fill:#F39B51;}
	.st11{fill:#FCC65B;}
	.st12{fill:#FBB37E;}
	.st13{fill:#384363;}
	.st14{fill:#405B9F;}
	.st15{fill:#385088;}
	.st16{fill:#EF6D6D;}
	.st17{fill:#849CD0;}
	.st18{fill:#FEE5A6;}
</style>
<g>
	<g>
		<g>
			<ellipse class="st0" cx="398.72" cy="500.99" rx="337.24" ry="16.07"/>
		</g>
	</g>
	<g>
		<g>
			<path class="st1" d="M176.15,446.72C117.63,428.58,38.41,337.81,70.6,249.33c18.32-50.34,75.82-54.09,121.02-62.46
				c62.81-11.62,91.09-48.58,132.69-94.07C370.8,41.97,476.38-17.41,569.77,61.71c25.15,21.31,29.15,62.51,61.6,91.43
				c32.63,29.09,75.19,29.22,94.34,86.8c14.92,44.87-49.32,138.22-92.85,166.04C552.35,457.44,308.12,487.63,176.15,446.72z"/>
		</g>
	</g>
	<g>
		<g>
			<g>
				<g>
					<g>
						<g>
							<g>
								<g>
									<path class="st2" d="M762,261.26c-0.01,0.33-0.02,0.66-0.02,0.99c-0.93,40.69-6.76,72.13-15.11,96.44l-21.61,11.92
										l17.36-1.76l0.5-0.05c-10.76,26.63-24.59,43.47-37.38,54.1c-7.96,6.63-15.51,10.85-21.67,13.51
										c-0.41,0.18-0.8,0.35-1.2,0.51c-0.99,0.41-1.95,0.78-2.86,1.11h-11.55c-0.13-0.54-0.25-1.08-0.37-1.63
										c-0.08-0.34-0.15-0.68-0.22-1.02c-0.11-0.45-0.2-0.9-0.28-1.35c-10.86-53.15,8.48-94.08,32.44-122.72
										c0.06-0.1,0.15-0.19,0.24-0.28c8.34-9.94,17.23-18.4,25.6-25.36l4.41,13.23l1.68-18.12
										c14.52-11.27,26.44-17.67,29.37-19.17C761.76,261.37,762,261.26,762,261.26z"/>
								</g>
							</g>
						</g>
					</g>
				</g>
			</g>
			<g>
				<g>
					<g>
						<g>
							<g>
								<g>
									<g>
										<polygon class="st3" points="762.4,261.47 761.97,262.25 735.74,310.52 735.26,311.38 728.11,324.54 727.87,324.98 
											705.06,366.94 705.03,367 667.86,435.38 667.3,436.41 666.41,438.03 665.41,438.03 666.28,436.41 667.58,434.03 
											704.26,366.55 704.94,365.3 761.31,261.61 761.62,261.04 										"/>
									</g>
								</g>
							</g>
						</g>
					</g>
				</g>
			</g>
			<g>
				<g>
					<g>
						<g>
							<g>
								<g>
									
										<rect x="725.31" y="315.39" transform="matrix(0.8524 -0.5228 0.5228 0.8524 -55.4425 435.1223)" class="st3" width="35.64" height="0.77"/>
								</g>
							</g>
						</g>
					</g>
				</g>
			</g>
			<g>
				<g>
					<g>
						<g>
							<g>
								<g>
									
										<rect x="733.15" y="303.6" transform="matrix(0.8524 -0.5228 0.5228 0.8524 -48.6871 435.4655)" class="st3" width="27.93" height="0.77"/>
								</g>
							</g>
						</g>
					</g>
				</g>
			</g>
			<g>
				<g>
					<g>
						<g>
							<g>
								<g>
									
										<rect x="702.14" y="310.93" transform="matrix(0.9971 -0.0766 0.0766 0.9971 -23.8962 54.7876)" class="st3" width="0.77" height="56.18"/>
								</g>
							</g>
						</g>
					</g>
				</g>
			</g>
			<g>
				<g>
					<g>
						<g>
							<g>
								<g>
									<path class="st4" d="M663.35,446.78c0,0,26.62,14.32,66.66-6.8l-12.28-6.63l20.51,1.9c15.71-9.81,33.19-25.1,51.73-48.51
										l-4.69-2.53l6.22,0.57c3.13-4,6.29-8.24,9.47-12.73c0,0-11.35-1.61-27.75-0.58l-8.96,10.89l2.92-10.4
										C733.59,375.29,684.15,390.21,663.35,446.78z"/>
								</g>
							</g>
						</g>
					</g>
				</g>
			</g>
			<g>
				<g>
					<g>
						<g>
							<g>
								<g>
									<g>
										
											<rect x="652.65" y="407.65" transform="matrix(0.8885 -0.4588 0.4588 0.8885 -105.7332 380.9525)" class="st3" width="157.08" height="0.87"/>
									</g>
								</g>
							</g>
						</g>
					</g>
				</g>
			</g>
			<g>
				<g>
					<g>
						<g>
							<g>
								<g>
									
										<rect x="773.86" y="382.89" transform="matrix(0.1544 -0.988 0.988 0.1544 266.7849 1097.0114)" class="st3" width="0.81" height="19.52"/>
								</g>
							</g>
						</g>
					</g>
				</g>
			</g>
			<g>
				<g>
					<g>
						<g>
							<g>
								<g>
									
										<rect x="765.86" y="387.01" transform="matrix(0.2266 -0.974 0.974 0.2266 204.4595 1054.5109)" class="st3" width="0.81" height="23"/>
								</g>
							</g>
						</g>
					</g>
				</g>
			</g>
			<g>
				<g>
					<g>
						<g>
							<g>
								<g>
									<g>
										<path class="st5" d="M697.86,398.68l-0.64-0.8c11.9-9.51,26.15-16.66,42.36-21.26l0.28,0.99
											C723.77,382.16,709.64,389.25,697.86,398.68z"/>
									</g>
								</g>
							</g>
						</g>
					</g>
				</g>
			</g>
		</g>
		<g>
			<g>
				<g>
					<g>
						<path class="st6" d="M690.53,140.81v350.33c0,4.89-3.96,8.86-8.86,8.86h-172.2c-4.89,0-8.86-3.97-8.86-8.86V140.81
							c0-4.9,3.97-8.86,8.86-8.86h172.2C686.57,131.95,690.53,135.9,690.53,140.81z"/>
					</g>
				</g>
			</g>
		</g>
		<g>
			<g>
				<g>
					<g>
						<path class="st7" d="M682.32,140.81v350.33c0,4.89-3.96,8.86-8.86,8.86h-172.2c-4.89,0-8.86-3.97-8.86-8.86V140.81
							c0-4.9,3.97-8.86,8.86-8.86h172.2C678.36,131.95,682.32,135.9,682.32,140.81z"/>
					</g>
				</g>
			</g>
		</g>
		<g>
			<g>
				<g>
					<g>
						<path class="st8" d="M669.28,177.13v277.68c0,5.65-4.29,10.24-9.58,10.24H515.02c-5.29,0-9.58-4.58-9.58-10.24V177.13
							c0-5.65,4.29-10.24,9.58-10.24H659.7C664.99,166.89,669.28,171.48,669.28,177.13z"/>
					</g>
				</g>
			</g>
		</g>
		<g>
			<g>
				<g>
					<g>
						<g>
							<g>
								<path class="st5" d="M611.29,148.83h-47.86c-0.47,0-0.85-0.38-0.85-0.85c0-0.47,0.38-0.85,0.85-0.85h47.86
									c0.47,0,0.85,0.38,0.85,0.85C612.14,148.45,611.76,148.83,611.29,148.83z"/>
							</g>
						</g>
					</g>
				</g>
			</g>
		</g>
		<g>
			<g>
				<g>
					<path class="st9" d="M632.71,372.83h-90.7c-3.62,0-6.59-2.97-6.59-6.59v-9.54c0-3.62,2.97-6.59,6.59-6.59h90.7
						c3.62,0,6.59,2.97,6.59,6.59v9.54C639.3,369.87,636.33,372.83,632.71,372.83z"/>
				</g>
			</g>
		</g>
		<g>
			<g>
				<g>
					<g>
						<path class="st3" d="M661.54,467.1H513.17c-6.55,0-11.88-5.51-11.88-12.29V177.13c0-6.78,5.33-12.29,11.88-12.29h148.37
							c6.55,0,11.88,5.51,11.88,12.29v277.68C673.42,461.59,668.1,467.1,661.54,467.1z M513.17,168.94c-4.29,0-7.78,3.67-7.78,8.19
							v277.68c0,4.51,3.49,8.19,7.78,8.19h148.37c4.29,0,7.78-3.67,7.78-8.19V177.13c0-4.52-3.49-8.19-7.78-8.19H513.17z"/>
					</g>
				</g>
			</g>
		</g>
		<g>
			<g>
				<g>
					<g>
						<path class="st6" d="M519.1,314.12h136.65c2.95,0,5.37-2.41,5.37-5.37v-87.78c0-2.95-2.41-5.37-5.37-5.37H519.1
							c-2.95,0-5.37,2.41-5.37,5.37v87.78C513.73,311.7,516.15,314.12,519.1,314.12z"/>
					</g>
				</g>
			</g>
			<g>
				<g>
					<g>
						<g>
							<g>
								<g>
									<path class="st3" d="M550.76,283.34H526.2c-0.8,0-1.45-0.65-1.45-1.45v-4.62c0-0.8,0.65-1.45,1.45-1.45h24.56
										c0.8,0,1.45,0.65,1.45,1.45v4.62C552.21,282.69,551.56,283.34,550.76,283.34z"/>
								</g>
							</g>
						</g>
					</g>
				</g>
				<g>
					<g>
						<g>
							<g>
								<g>
									<path class="st3" d="M583.39,283.34h-24.56c-0.8,0-1.45-0.65-1.45-1.45v-4.62c0-0.8,0.65-1.45,1.45-1.45h24.56
										c0.8,0,1.45,0.65,1.45,1.45v4.62C584.84,282.69,584.19,283.34,583.39,283.34z"/>
								</g>
							</g>
						</g>
					</g>
				</g>
				<g>
					<g>
						<g>
							<g>
								<g>
									<path class="st3" d="M616.02,283.34h-24.56c-0.8,0-1.45-0.65-1.45-1.45v-4.62c0-0.8,0.65-1.45,1.45-1.45h24.56
										c0.8,0,1.45,0.65,1.45,1.45v4.62C617.47,282.69,616.81,283.34,616.02,283.34z"/>
								</g>
							</g>
						</g>
					</g>
				</g>
				<g>
					<g>
						<g>
							<g>
								<g>
									<path class="st3" d="M648.64,283.34h-24.56c-0.8,0-1.45-0.65-1.45-1.45v-4.62c0-0.8,0.65-1.45,1.45-1.45h24.56
										c0.8,0,1.45,0.65,1.45,1.45v4.62C650.1,282.69,649.44,283.34,648.64,283.34z"/>
								</g>
							</g>
						</g>
					</g>
				</g>
			</g>
			<g>
				<g>
					<g>
						<g>
							<g>
								<g>
									<path class="st3" d="M648.33,298.06h-32.32c-0.97,0-1.77-0.8-1.77-1.77v-3.99c0-0.97,0.8-1.77,1.77-1.77h32.32
										c0.97,0,1.77,0.8,1.77,1.77v3.99C650.1,297.26,649.3,298.06,648.33,298.06z"/>
								</g>
							</g>
						</g>
					</g>
				</g>
			</g>
			<g>
				<g>
					<g>
						<g>
							<g>
								<g>
									<path class="st3" d="M531.01,244.68v-9.88c0-2.16,1.76-3.92,3.92-3.92h19.2c2.16,0,3.92,1.76,3.92,3.92v9.88
										c0,2.16-1.76,3.92-3.92,3.92h-19.2C532.77,248.59,531.01,246.84,531.01,244.68z M534.93,231.93
										c-1.58,0-2.87,1.29-2.87,2.87v9.88c0,1.58,1.29,2.87,2.87,2.87h19.2c1.58,0,2.87-1.29,2.87-2.87v-9.88
										c0-1.58-1.29-2.87-2.87-2.87H534.93z"/>
								</g>
							</g>
						</g>
					</g>
				</g>
			</g>
			<g>
				<g>
					<g>
						<g>
							<g>
								<path class="st3" d="M645.54,238.37c0-0.12,0.05-0.24,0.14-0.34c4.32-4.32,4.32-11.34,0-15.66c-0.19-0.19-0.19-0.49,0-0.67
									c0.19-0.19,0.49-0.19,0.67,0c4.69,4.69,4.69,12.32,0,17c-0.19,0.19-0.49,0.19-0.67,0
									C645.59,238.61,645.54,238.49,645.54,238.37z"/>
							</g>
						</g>
					</g>
				</g>
				<g>
					<g>
						<g>
							<g>
								<path class="st3" d="M643.16,224.76c0-0.12,0.05-0.24,0.14-0.34c0.19-0.19,0.49-0.19,0.67,0c3.19,3.19,3.19,8.37,0,11.56
									c-0.19,0.19-0.49,0.19-0.67,0c-0.19-0.19-0.19-0.49,0-0.67c2.82-2.82,2.82-7.4,0-10.21
									C643.21,225,643.16,224.88,643.16,224.76z"/>
							</g>
						</g>
					</g>
				</g>
				<g>
					<g>
						<g>
							<g>
								<path class="st3" d="M640.88,233.12c0-0.12,0.05-0.24,0.14-0.34c1.42-1.42,1.42-3.74,0-5.16c-0.19-0.19-0.19-0.49,0-0.67
									c0.19-0.19,0.49-0.19,0.67,0c1.79,1.79,1.79,4.71,0,6.51c-0.19,0.19-0.49,0.19-0.67,0
									C640.92,233.36,640.88,233.24,640.88,233.12z"/>
							</g>
						</g>
					</g>
				</g>
			</g>
		</g>
		<g>
			<g>
				<g>
					<g>
						<g>
							<path class="st5" d="M683.09,421.82h-1.54V140.81c0-4.46-3.63-8.09-8.09-8.09h-172.2c-4.46,0-8.09,3.63-8.09,8.09v240.7
								h-1.54v-240.7c0-5.31,4.32-9.63,9.63-9.63h172.2c5.31,0,9.63,4.32,9.63,9.63V421.82z"/>
						</g>
					</g>
				</g>
				<g>
					<g>
						<g>
							<path class="st5" d="M521.06,500.77h-19.8c-5.31,0-9.63-4.32-9.63-9.63v-40.51h1.54v40.51c0,4.46,3.63,8.09,8.09,8.09h19.8
								V500.77z"/>
						</g>
					</g>
				</g>
				<g>
					<g>
						<g>
							<rect x="581.3" y="499.23" class="st5" width="18.33" height="1.54"/>
						</g>
					</g>
				</g>
			</g>
		</g>
		<g>
			<g>
				<g>
					<g>
						<g>
							<path class="st10" d="M694.44,498.45c0,2.65-19.43,4.8-43.4,4.8c-23.97,0-43.4-2.15-43.4-4.8c0-0.05,0.01-0.09,0.02-0.14
								v-12.97h86.75v12.94C694.43,498.34,694.44,498.39,694.44,498.45z"/>
						</g>
					</g>
					<g>
						<g>
							<ellipse class="st11" cx="651.04" cy="485.46" rx="43.4" ry="4.8"/>
						</g>
					</g>
				</g>
				<g>
					<g>
						<g>
							<path class="st10" d="M704.69,482.8c0,2.65-19.43,4.8-43.4,4.8c-23.97,0-43.4-2.15-43.4-4.8c0-0.05,0.01-0.09,0.02-0.14
								v-12.97h86.75v12.94C704.68,482.69,704.69,482.74,704.69,482.8z"/>
						</g>
					</g>
					<g>
						<g>
							<ellipse class="st11" cx="661.29" cy="469.81" rx="43.4" ry="4.8"/>
						</g>
					</g>
				</g>
				<g>
					<g>
						<g>
							<path class="st10" d="M694.44,467.15c0,2.65-19.43,4.8-43.4,4.8c-23.97,0-43.4-2.15-43.4-4.8c0-0.05,0.01-0.09,0.02-0.14
								v-12.97h86.75v12.94C694.43,467.04,694.44,467.09,694.44,467.15z"/>
						</g>
					</g>
					<g>
						<g>
							<ellipse class="st11" cx="651.04" cy="454.15" rx="43.4" ry="4.8"/>
						</g>
					</g>
				</g>
				<g>
					<g>
						<g>
							<g>
								<path class="st5" d="M651.04,503.76c-17.65,0-43.91-1.42-43.91-5.31h1.03c0,1.5,14.73,4.29,42.89,4.29
									c1.02,0,2.04,0,3.04-0.01l0.01,1.03C653.09,503.76,652.07,503.76,651.04,503.76z"/>
							</g>
						</g>
					</g>
					<g>
						<g>
							<g>
								<path class="st5" d="M668.25,503.37l-0.05-1.02c4.39-0.21,8.42-0.5,11.98-0.86l0.1,1.02
									C676.71,502.87,672.66,503.16,668.25,503.37z"/>
							</g>
						</g>
					</g>
				</g>
				<g>
					<g>
						<g>
							<g>
								<path class="st5" d="M633.91,486.96c-16.31-1.48-16.31-3.54-16.31-4.22h1.03c0,0.5,2.76,2.05,15.38,3.19L633.91,486.96z"/>
							</g>
						</g>
					</g>
					<g>
						<g>
							<g>
								<path class="st5" d="M661.52,488.05c-4.88,0-9.67-0.09-14.24-0.26l0.04-1.03c8.16,0.31,17.19,0.35,25.6,0.1l0.03,1.03
									C669.22,488,665.38,488.05,661.52,488.05z"/>
							</g>
						</g>
					</g>
					<g>
						<g>
							<g>
								<path class="st5" d="M683.72,487.38l-0.07-1.02c4.63-0.3,8.66-0.7,12-1.17l0.14,1.02
									C692.44,486.68,688.37,487.07,683.72,487.38z"/>
							</g>
						</g>
					</g>
				</g>
				<g>
					<g>
						<g>
							<g>
								<path class="st5" d="M621.86,458.24c-14.46-1.48-14.46-3.34-14.46-4.04h1.03c0,0.02,0.37,1.68,13.54,3.02L621.86,458.24z"/>
							</g>
						</g>
					</g>
					<g>
						<g>
							<g>
								<path class="st5" d="M651.3,459.51c-4.99,0-9.87-0.09-14.5-0.27l0.04-1.03c4.62,0.18,9.49,0.27,14.46,0.27
									c8.91,0,17.46-0.3,24.74-0.86l0.08,1.02C668.82,459.22,660.24,459.51,651.3,459.51z"/>
							</g>
						</g>
					</g>
				</g>
				<g>
					<g>
						<g>
							<path class="st10" d="M709.82,451.5c0,2.65-19.43,4.8-43.4,4.8c-23.97,0-43.4-2.15-43.4-4.8c0-0.05,0.01-0.09,0.02-0.14
								v-12.97h86.75v12.94C709.81,451.39,709.82,451.44,709.82,451.5z"/>
						</g>
					</g>
					<g>
						<g>
							<ellipse class="st11" cx="666.42" cy="438.5" rx="43.4" ry="4.8"/>
						</g>
					</g>
					<g>
						<g>
							<path class="st10" d="M701.77,438.5c0,1.78-15.83,3.23-35.35,3.23c-19.52,0-35.35-1.45-35.35-3.23
								c0-1.78,15.83-3.23,35.35-3.23C685.94,435.27,701.77,436.72,701.77,438.5z"/>
						</g>
					</g>
				</g>
			</g>
			<g>
				<g>
					<g>
						<path class="st11" d="M553.81,415.39c-24.2-0.66-44.35,18.42-45.01,42.63c-0.66,24.2,18.42,44.36,42.63,45.01
							c24.2,0.66,44.36-18.42,45.01-42.63C597.11,436.2,578.02,416.05,553.81,415.39z M587.9,460.17
							c-0.26,9.42-4.17,18.18-11.02,24.66c-6.84,6.48-15.79,9.91-25.22,9.66c-19.44-0.53-34.84-16.78-34.31-36.23
							c0.26-9.42,4.16-18.18,11.01-24.66c6.6-6.25,15.17-9.67,24.24-9.67c0.33,0,0.65,0.01,0.98,0.02
							c19.13,0.51,34.32,16.25,34.32,35.26C587.91,459.53,587.91,459.85,587.9,460.17z"/>
					</g>
				</g>
				<g>
					<g>
						<path class="st10" d="M587.91,459.21c0,0.32,0,0.64-0.01,0.96c-0.26,9.42-4.17,18.18-11.02,24.66
							c-6.84,6.48-15.79,9.91-25.22,9.66c-19.44-0.53-34.84-16.78-34.31-36.24c0.26-9.42,4.16-18.18,11.01-24.66
							c6.6-6.25,15.18-9.67,24.24-9.67c0.33,0,0.65,0.01,0.98,0.02C572.72,424.46,587.91,440.19,587.91,459.21z"/>
					</g>
				</g>
				<g>
					<g>
						<g>
							<path class="st11" d="M550.39,486.2v-6.64c-3.81-0.07-7.76-1.25-10.06-2.89l1.58-4.4c2.37,1.58,5.78,2.83,9.47,2.83
								c4.67,0,7.82-2.7,7.82-6.44c0-3.62-2.56-5.85-7.43-7.82c-6.71-2.63-10.85-5.65-10.85-11.37c0-5.46,3.88-9.6,9.93-10.58v-6.64
								h4.08v6.38c3.94,0.13,6.64,1.18,8.55,2.3l-1.64,4.34c-1.38-0.79-4.08-2.23-8.28-2.23c-5.06,0-6.97,3.02-6.97,5.65
								c0,3.42,2.43,5.13,8.15,7.49c6.77,2.76,10.19,6.18,10.19,12.03c0,5.19-3.62,10.06-10.39,11.18v6.84H550.39z"/>
						</g>
					</g>
				</g>
				<g>
					<g>
						<path class="st5" d="M586.46,450.38c-0.07-0.29-0.16-0.57-0.24-0.86c-2.8-9.67-9.62-17.64-18.73-21.9l0.41-0.87
							c9.36,4.38,16.36,12.56,19.22,22.45c0.1,0.35,0.19,0.65,0.26,0.94L586.46,450.38z"/>
					</g>
				</g>
				<g>
					<g>
						<path class="st5" d="M567.5,427.62c-7.32-3.43-15.66-4.2-23.48-2.16l-0.24-0.92c8.04-2.09,16.61-1.3,24.13,2.22L567.5,427.62z
							"/>
					</g>
				</g>
				<g>
					<g>
						<path class="st5" d="M583.6,477.25l-0.82-0.48c2.35-3.99,3.86-8.31,4.48-12.83l0.95,0.13
							C587.56,468.72,586.01,473.15,583.6,477.25z"/>
					</g>
				</g>
				<g>
					<g>
						<g>
							<path class="st5" d="M581.16,426.61c-3.39-2.97-7.19-5.38-11.31-7.16l0.41-0.94c4.21,1.83,8.11,4.3,11.58,7.33L581.16,426.61
								z"/>
						</g>
					</g>
				</g>
				<g>
					<g>
						<g>
							<path class="st5" d="M577.37,496.03l-0.57-0.85c11.61-7.81,18.76-20.82,19.14-34.78c0.24-8.68-2.09-17.12-6.74-24.41
								l0.87-0.55c4.75,7.47,7.14,16.11,6.9,24.99C596.57,474.72,589.25,488.03,577.37,496.03z"/>
						</g>
					</g>
				</g>
			</g>
		</g>
		<g>
			<g>
				<g>
					<g>
						<path class="st5" d="M661.63,239.72h-1.03v-19.53c0-2.55-2.07-4.62-4.62-4.62h-87.33v-1.03h87.33c3.11,0,5.64,2.53,5.64,5.64
							V239.72z"/>
					</g>
				</g>
			</g>
			<g>
				<g>
					<g>
						<rect x="660.6" y="249.97" class="st5" width="1.03" height="11.29"/>
					</g>
				</g>
			</g>
			<g>
				<g>
					<g>
						<rect x="539.56" y="214.55" class="st5" width="17.81" height="1.03"/>
					</g>
				</g>
			</g>
		</g>
	</g>
	<g>
		<g>
			<g>
				<g>
					<path class="st5" d="M70.01,230.46l-0.88-0.53C79.5,212.64,96.2,200.9,121.7,193l0.3,0.98
						C96.76,201.8,80.24,213.39,70.01,230.46z"/>
				</g>
			</g>
		</g>
		<g>
			<g>
				<g>
					<path class="st5" d="M56.73,237.2l-0.96-0.35c13.39-36.79,47.74-48.59,79.58-55.29l0.21,1
						C103.99,189.2,69.94,200.88,56.73,237.2z"/>
				</g>
			</g>
		</g>
		<g>
			<g>
				<g>
					<path class="st5" d="M520.26,22.91c-23.53-12.03-43.45-15.27-62.69-10.2l-0.26-0.99c19.5-5.14,39.65-1.88,63.42,10.27
						L520.26,22.91z"/>
				</g>
			</g>
		</g>
		<g>
			<g>
				<g>
					<path class="st5" d="M537.94,24.2C510.71,6.91,478.18-8.51,443.36,8.26l-0.44-0.92c35.27-16.99,68.11-1.44,95.57,16
						L537.94,24.2z"/>
				</g>
			</g>
		</g>
	</g>
	<g>
		<g>
			<g>
				<path class="st11" d="M409.66,70.88c-24.2-0.66-44.35,18.42-45.01,42.63c-0.66,24.2,18.42,44.36,42.63,45.01
					c24.2,0.66,44.36-18.42,45.01-42.63C452.95,91.7,433.87,71.54,409.66,70.88z M443.75,115.66c-0.26,9.42-4.17,18.18-11.02,24.66
					c-6.84,6.48-15.79,9.91-25.22,9.66c-19.44-0.53-34.84-16.78-34.31-36.23c0.26-9.42,4.16-18.18,11.01-24.66
					c6.6-6.25,15.17-9.67,24.24-9.67c0.33,0,0.65,0.01,0.98,0.02c19.13,0.51,34.32,16.25,34.32,35.26
					C443.75,115.02,443.75,115.34,443.75,115.66z"/>
			</g>
		</g>
		<g>
			<g>
				<path class="st10" d="M443.76,114.7c0,0.32,0,0.64-0.01,0.96c-0.26,9.42-4.17,18.18-11.02,24.66
					c-6.84,6.48-15.79,9.91-25.22,9.66c-19.44-0.53-34.84-16.78-34.31-36.24c0.26-9.42,4.16-18.18,11.01-24.66
					c6.6-6.25,15.18-9.67,24.24-9.67c0.33,0,0.65,0.01,0.98,0.02C428.56,79.95,443.76,95.69,443.76,114.7z"/>
			</g>
		</g>
		<g>
			<g>
				<g>
					<path class="st11" d="M406.24,141.69v-6.64c-3.81-0.07-7.76-1.25-10.06-2.89l1.58-4.4c2.37,1.58,5.78,2.83,9.47,2.83
						c4.67,0,7.82-2.7,7.82-6.44c0-3.62-2.56-5.85-7.43-7.82c-6.71-2.63-10.85-5.65-10.85-11.37c0-5.46,3.88-9.6,9.93-10.58v-6.64
						h4.08v6.38c3.94,0.13,6.64,1.18,8.55,2.3l-1.64,4.34c-1.38-0.79-4.08-2.23-8.28-2.23c-5.06,0-6.97,3.02-6.97,5.65
						c0,3.42,2.43,5.13,8.15,7.49c6.77,2.76,10.19,6.18,10.19,12.03c0,5.19-3.62,10.06-10.39,11.18v6.84H406.24z"/>
				</g>
			</g>
		</g>
		<g>
			<g>
				<g>
					<path class="st5" d="M442.37,105.95c-0.08-0.3-0.17-0.6-0.25-0.9c-2.79-9.63-9.6-17.59-18.71-21.86l0.41-0.87
						c9.36,4.38,16.36,12.56,19.22,22.44c0.09,0.32,0.18,0.63,0.26,0.94L442.37,105.95z"/>
				</g>
			</g>
			<g>
				<g>
					<path class="st5" d="M423.4,83.19c-7.33-3.43-15.66-4.2-23.48-2.16l-0.24-0.93c8.04-2.09,16.6-1.3,24.13,2.22L423.4,83.19z"/>
				</g>
			</g>
			<g>
				<g>
					<path class="st5" d="M374.07,123.7c-2.4-9.25-1.06-18.88,3.77-27.11l0.82,0.48c-4.71,8.01-6.01,17.38-3.67,26.38L374.07,123.7z
						"/>
				</g>
			</g>
		</g>
		<g>
			<g>
				<g>
					<g>
						<path class="st5" d="M437,82.9c-3.39-2.97-7.19-5.38-11.31-7.16l0.41-0.94c4.21,1.83,8.11,4.29,11.58,7.33L437,82.9z"/>
					</g>
				</g>
			</g>
			<g>
				<g>
					<g>
						<path class="st5" d="M433.21,152.32l-0.57-0.85c11.61-7.81,18.76-20.82,19.14-34.78c0.24-8.68-2.1-17.12-6.74-24.41l0.87-0.55
							c4.75,7.47,7.14,16.11,6.9,24.99C452.42,131.01,445.09,144.32,433.21,152.32z"/>
					</g>
				</g>
			</g>
		</g>
		<g>
			<g>
				<g>
					<g>
						<path class="st12" d="M402.38,209.14l3.88-16.64l15.86-6.6l2.82,23.24c0,0-2.35,15.1-16.94,20.51
							C393.42,235.06,402.38,209.14,402.38,209.14z"/>
					</g>
				</g>
			</g>
		</g>
		<g>
			<g>
				<g>
					<g>
						<path class="st12" d="M396.15,165.38c0,0-5.65,31.29,3.53,31.52c9.17,0.24,16.7-3.29,18.58-5.41
							c1.88-2.12,3.29-12.47,3.29-12.47s1.18-13.41-4.47-16C411.44,160.44,399.2,155.97,396.15,165.38z"/>
					</g>
				</g>
			</g>
		</g>
		<g>
			<g>
				<g>
					<g>
						<path class="st13" d="M426.33,185.29c-1.8,3.33-3.58,6.59-3.58,6.59c-2.68-0.42-5.65-3.77-6.17-6.66c0,0-8.43-0.79-8.73-11.23
							c0,0-14.65,0.1-14.99-12.61c-0.36-12.7,14.29-9.43,19.14-5.55c4.85,3.88,7.79,5.86,15.34,8.29
							C435.28,166.68,428.65,181.02,426.33,185.29z"/>
					</g>
				</g>
			</g>
		</g>
		<g>
			<g>
				<g>
					<g>
						<g>
							<g>
								<path class="st12" d="M419.48,487.5l-1.8-18.49h-19.54l4.25,17.96c0,0,2.26,6.02,8.83,5.8
									C417.53,492.55,419.48,487.5,419.48,487.5z"/>
							</g>
						</g>
					</g>
				</g>
			</g>
		</g>
		<g>
			<g>
				<g>
					<g>
						<g>
							<path class="st12" d="M515.72,429.66l-15.01-10.95l-12.99,14.6l19.23,9.75c0,0,2.38,0.47,7.2-3.73
								C518.92,435.18,515.72,429.66,515.72,429.66z"/>
						</g>
					</g>
				</g>
			</g>
		</g>
		<g>
			<g>
				<g>
					<g>
						<g>
							<g>
								<path class="st14" d="M435.93,474.77c-11.31,4.28-25.77,3.11-41.35,0c-0.45-1.09-0.9-2.17-1.33-3.27
									c-29.69-75.04-8.67-184.03-8.67-184.03h46.69l-1.06,36.03c-2.05,9.52-3.46,19.16-4.36,28.71
									C419.93,415.06,435.93,474.77,435.93,474.77z"/>
							</g>
						</g>
					</g>
				</g>
			</g>
			<g>
				<g>
					<path class="st15" d="M435.92,474.74c-0.73-1.47-27.32-55.5-19.4-116.46l8.43,6.79C422.1,422.14,435.54,473.31,435.92,474.74z"
						/>
				</g>
			</g>
		</g>
		<g>
			<g>
				<g>
					<g>
						<g>
							<g>
								<path class="st14" d="M511.38,410.11c-4.29,12.03-8.85,21.37-13.81,26.83c-2.31,2.53-4.7,4.24-7.19,4.97
									c-7.16-3.67-13.71-7.65-19.7-11.88c-0.82-0.56-1.62-1.14-2.42-1.72c-1.07-0.78-2.11-1.57-3.13-2.36
									c-0.47-0.36-0.93-0.72-1.38-1.09c-0.92-0.72-1.83-1.46-2.71-2.18c-0.79-0.66-1.57-1.32-2.33-1.98
									c-4.03-3.49-7.74-7.08-11.17-10.76c-0.33-0.35-0.66-0.71-0.97-1.06c-0.24-0.26-0.47-0.52-0.71-0.78l-0.01-0.01
									c-47.09-52.34-38.45-120.63-38.45-120.63h40.96C451.87,352.95,511.38,410.11,511.38,410.11z"/>
							</g>
						</g>
					</g>
				</g>
			</g>
		</g>
		<g>
			<g>
				<g>
					<g>
						<path class="st12" d="M457.55,145.71c-3.5-2.55-5.93-3.96-6.52-4.38c-0.74-0.53-0.92-1.86-1.79-3.19
							c-2-3.07-6.16-8.49-10.46-10c-0.55-0.2-0.98,0.39-0.38,1.02c1.05,1.16,3.04,2.82,2.73,3.1c-0.66,0.55-5.32-5.05-6.63-3.75
							c-0.99,0.98,5.75,5.98,5.49,6.29c-0.53,0.63-5.6-5.09-6.84-3.8c-1.17,1.23,4.92,4.44,4.66,4.98c-0.27,0.56-4.5-2.94-5.33-2.15
							c-1.26,1.2,6.35,5.92,6.14,6.62c-0.27,1.13-4.21-1.23-4.79,0.1c-0.58,1.25,4.94,3.62,5.98,4.14c2.41,1.21,4.16,0.68,6.09,3.68
							c1.06,1.65,2.11,3.29,3.14,4.94L457.55,145.71z"/>
					</g>
				</g>
			</g>
		</g>
		<g>
			<g>
				<g>
					<g>
						<path class="st12" d="M361.08,149.45c3.2-2.91,5.48-4.57,6.02-5.05c0.68-0.61,0.72-1.95,1.44-3.36
							c1.66-3.26,5.22-9.1,9.33-11.06c0.53-0.25,1.01,0.28,0.49,0.97c-0.92,1.27-2.72,3.13-2.39,3.38c0.72,0.48,4.75-5.59,6.19-4.43
							c1.09,0.87-5.08,6.56-4.79,6.84c0.59,0.57,5.02-5.66,6.39-4.51c1.3,1.1-4.42,4.94-4.1,5.45c0.33,0.53,4.16-3.4,5.07-2.7
							c1.38,1.06-5.68,6.57-5.4,7.24c0.39,1.1,4.05-1.67,4.77-0.41c0.71,1.18-4.52,4.13-5.5,4.76c-2.26,1.46-4.06,1.12-5.66,4.31
							c-0.88,1.75-1.74,3.49-2.59,5.25L361.08,149.45z"/>
					</g>
				</g>
			</g>
		</g>
		<g>
			<g>
				<g>
					<path class="st15" d="M448.78,292.82c-3.65,2.33-10.05,6.09-17.94,9.35c-7.07,2.91-15.33,5.44-23.89,6.18
						c-8.32,0.73-16.92-0.23-24.99-4.11c0.51-3.83,1.01-7.08,1.42-9.67c7.4,3.92,15.43,5.57,23.4,5.79
						c8.41,0.25,16.75-1.1,24.21-3.05c6.82-1.77,12.91-4.05,17.64-6.08C448.67,291.76,448.72,292.29,448.78,292.82z"/>
				</g>
			</g>
		</g>
		<g>
			<g>
				<g>
					<path class="st16" d="M374.27,287.85v-51.53c0,0-46.3-7.86-37.21-52.7c5.78-28.49,26.12-38.66,26.12-38.66l11.28,9.06
						c0,0-23.98,36.65,7.58,49.38c0,0,17.75-0.55,22.38,4.44c0,0,10.17,8.14,20.9-5.36c0,0,10.91-4.25,20.21-1.75
						c7.65,2.06,17.51-16.92-0.79-49.1l11.47-10.36c0,0,67.13,64.54,1.29,96.53l-3.68,51.48
						C453.82,289.29,402.86,318.18,374.27,287.85z"/>
				</g>
			</g>
		</g>
		<g>
			<g>
				<g>
					<circle class="st12" cx="414.54" cy="183.44" r="3.65"/>
				</g>
			</g>
		</g>
		<g>
			<g>
				<g>
					<g>
						<g>
							<g>
								<path class="st3" d="M424.51,377.84c-8.6-16.7-14.24-35.28-16.74-55.22l0.81-0.1c2.49,19.84,8.1,38.33,16.66,54.95
									L424.51,377.84z"/>
							</g>
						</g>
					</g>
				</g>
			</g>
		</g>
		<g>
			<g>
				<g>
					<path class="st3" d="M446.52,318.85c-12.96,0-17.11-11.26-17.15-11.38l0.77-0.27c0.04,0.11,4.1,11.17,16.99,10.83l0.02,0.81
						C446.94,318.85,446.72,318.85,446.52,318.85z"/>
				</g>
			</g>
		</g>
		<g>
			<g>
				<g>
					<path class="st5" d="M410.88,214.56c-0.24,0-0.49-0.01-0.73-0.03c-5.82-0.54-8.77-7.34-8.89-7.63l0.75-0.32
						c0.03,0.07,2.88,6.65,8.22,7.14c4.48,0.42,9.44-3.44,14.74-11.46l0.68,0.45C420.45,210.58,415.49,214.56,410.88,214.56z"/>
				</g>
			</g>
		</g>
		<g>
			<g>
				<path class="st9" d="M374.28,236.33c0,0-46.31-7.87-37.22-52.7c0.49-2.45,1.1-4.78,1.79-6.96c0.11-0.12,0.24-0.25,0.35-0.36
					c-0.77,10.12-1.13,18.99,3.35,28.57C351.94,224.93,374.92,236.28,374.28,236.33z"/>
			</g>
		</g>
		<g>
			<g>
				<path class="st9" d="M457.49,237.81l-3.67,51.48c0,0-10.58,6.01-24.82,9.67c2.46-1.87,12.82-17.7,14.55-25.71
					c3.11-14.35,3.5-22.62,3.9-37.92c15.32-3.98,32.78-17.48,38.79-40C487.61,210.69,481.09,226.33,457.49,237.81z"/>
			</g>
		</g>
		<g>
			<g>
				<g>
					<path class="st5" d="M408.53,296.31c-0.14,0-0.22,0-0.24,0l0.02-0.81c0.22,0,21.74,0.3,40.37-11.06l0.42,0.7
						C431.32,295.97,410.94,296.31,408.53,296.31z"/>
				</g>
			</g>
		</g>
		<g>
			<g>
				<path class="st15" d="M497.57,436.94c-2.31,2.53-4.7,4.24-7.19,4.97c-7.16-3.67-13.71-7.65-19.7-11.88
					c-0.82-0.56-1.62-1.14-2.42-1.72c-1.07-0.78-2.11-1.57-3.13-2.36c-0.47-0.36-0.93-0.72-1.38-1.09
					c-0.92-0.72-1.83-1.46-2.71-2.18c-0.79-0.66-1.57-1.32-2.33-1.98c-4.03-3.49-7.74-7.08-11.17-10.76
					c-0.33-0.35-0.66-0.71-0.97-1.06c-0.24-0.26-0.47-0.52-0.71-0.78C473.87,431.26,491.78,435.99,497.57,436.94z"/>
			</g>
		</g>
		<g>
			<g>
				<path class="st3" d="M505.31,408.48c-19.72-12.8-32.24-35.93-32.37-36.17l0.68-0.36c0.12,0.23,12.56,23.19,32.11,35.88
					L505.31,408.48z"/>
			</g>
		</g>
		<g>
			<g>
				<g>
					<g>
						<g>
							<g>
								<g>
									<path class="st13" d="M421.96,502.23h-44.33c-1.54,0-2.78-1.31-2.66-2.85c0-0.02,0-0.04,0-0.06
										c0.03-0.34,0.07-0.69,0.12-1.04c0.15-1.18,0.47-2.36,1.03-3.1c2.1-2.79,6.18-4.06,13.45-6.94
										c4.56-1.82,8.44-4.23,10.14-5.35c0.55-0.37,1.27-0.28,1.75,0.18c8.77,8.57,14.15,6.75,15.76,3.21
										c1.23-2.7,2.97-2.13,3.46-1.34c1.48,2.47,2.29,9.71,2.62,13.34c0.04,0.39,0.07,0.75,0.09,1.04
										c0.05,0.68,0.08,1.09,0.08,1.09C423.64,501.35,422.91,502.23,421.96,502.23z"/>
								</g>
							</g>
						</g>
					</g>
				</g>
			</g>
			<g>
				<g>
					<g>
						<path class="st3" d="M392.08,492.9c-3.15-1.53-2.68-4.78-2.67-4.81l0.76,0.12c-0.02,0.11-0.38,2.73,2.25,4L392.08,492.9z"/>
					</g>
				</g>
				<g>
					<g>
						<path class="st3" d="M388.19,494.2c-2.9-1.63-2.59-4.46-2.57-4.58l0.76,0.09c-0.01,0.1-0.25,2.44,2.19,3.82L388.19,494.2z"/>
					</g>
				</g>
				<g>
					<g>
						<path class="st3" d="M413.21,492.27c-2.97,0-5.65-1.35-5.69-1.38l0.35-0.68c0.07,0.04,6.79,3.42,10.25-0.89l0.6,0.48
							C417.2,491.7,415.14,492.27,413.21,492.27z"/>
					</g>
				</g>
			</g>
			<g>
				<g>
					<g>
						<rect x="392.15" y="498.77" class="st3" width="25.83" height="0.77"/>
					</g>
				</g>
				<g>
					<g>
						<rect x="382.73" y="498.77" class="st3" width="6.11" height="0.77"/>
					</g>
				</g>
			</g>
		</g>
		<g>
			<g>
				<g>
					<g>
						<g>
							<g>
								<g>
									<path class="st13" d="M528.94,432.33l-21.66,38.68c-0.75,1.35-2.5,1.79-3.78,0.93c-0.01-0.01-0.03-0.02-0.04-0.03
										c-0.29-0.19-0.56-0.4-0.85-0.62c-0.94-0.72-1.83-1.57-2.19-2.41c-1.4-3.2-0.52-7.37,0.51-15.14
										c0.65-4.87,0.43-9.41,0.29-11.47c-0.05-0.66,0.38-1.24,1.02-1.44c11.76-3.47,12.8-9.04,10.5-12.18
										c-1.75-2.39-0.41-3.64,0.51-3.67c2.88-0.08,9.59,2.74,12.91,4.24c0.37,0.15,0.7,0.3,0.96,0.42
										c0.62,0.29,0.98,0.46,0.98,0.46C529.01,430.43,529.4,431.49,528.94,432.33z"/>
								</g>
							</g>
						</g>
					</g>
				</g>
			</g>
			<g>
				<g>
					<g>
						<path class="st3" d="M502.17,454.24c-0.74,0-1.27-0.11-1.33-0.12l0.16-0.75c0.03,0.01,3.19,0.63,4.77-1.41l0.61,0.47
							C505.21,453.95,503.4,454.24,502.17,454.24z"/>
					</g>
				</g>
				<g>
					<g>
						<path class="st3" d="M501.82,458.43c-0.74,0-1.27-0.11-1.33-0.12l0.16-0.75c0.03,0.01,3.19,0.63,4.77-1.41l0.61,0.47
							C504.86,458.14,503.05,458.43,501.82,458.43z"/>
					</g>
				</g>
				<g>
					<g>
						<path class="st3" d="M512.78,439.43l-0.5-0.58c0.06-0.05,5.74-4.99,3.07-9.82l0.67-0.37
							C518.99,434.03,512.84,439.37,512.78,439.43z"/>
					</g>
				</g>
			</g>
			<g>
				<g>
					<g>
						
							<rect x="504.66" y="446.1" transform="matrix(0.4792 -0.8777 0.8777 0.4792 -122.3315 686.8052)" class="st3" width="25.83" height="0.77"/>
					</g>
				</g>
				<g>
					<g>
						
							<rect x="505.29" y="463.04" transform="matrix(0.4792 -0.8777 0.8777 0.4792 -142.0043 687.517)" class="st3" width="6.11" height="0.77"/>
					</g>
				</g>
			</g>
		</g>
		<g>
			<g>
				<g>
					<path class="st5" d="M381.9,203.9c-0.4-0.11-9.86-2.89-14.78-11.93c-3.39-6.24-3.73-13.88-1.01-22.71l0.98,0.3
						c-2.63,8.55-2.32,15.92,0.93,21.91c4.7,8.66,14.07,11.42,14.16,11.44L381.9,203.9z"/>
				</g>
			</g>
		</g>
		<g>
			<g>
				<path class="st13" d="M405.9,174.59c-3.57,0-9.18-1.52-12.12-5.19c-1.82-2.27-3.3-6.27-0.03-12.47l0.68,0.36
					c-2.47,4.68-2.48,8.59-0.05,11.63c3.4,4.25,10.59,5.46,13.36,4.7l0.2,0.74C407.41,174.51,406.71,174.59,405.9,174.59z"/>
			</g>
		</g>
		<g>
			<g>
				<path class="st13" d="M402.6,175.33c-2.46,0-5.42-0.68-8.63-2.8l0.42-0.64c8.4,5.55,14.85,0.76,14.92,0.71l0.47,0.61
					C409.73,173.25,406.92,175.33,402.6,175.33z"/>
			</g>
		</g>
	</g>
	<g>
		<g>
			<g>
				<g>
					<g>
						<g>
							<g>
								<path class="st2" d="M33.62,302.35c0.01,0.29,0.01,0.57,0.02,0.86c0.81,35.3,5.87,62.58,13.1,83.66l18.75,10.34l-15.06-1.53
									l-0.43-0.04c9.33,23.1,21.33,37.71,32.43,46.93c6.9,5.75,13.46,9.41,18.8,11.72c0.35,0.16,0.7,0.3,1.04,0.44
									c0.86,0.36,1.69,0.68,2.48,0.97h10.02c0.11-0.47,0.22-0.94,0.32-1.41c0.07-0.3,0.13-0.59,0.19-0.89
									c0.09-0.39,0.17-0.78,0.25-1.17c9.42-46.11-7.35-81.62-28.14-106.46c-0.06-0.08-0.13-0.16-0.2-0.25
									c-7.23-8.62-14.95-15.96-22.21-22L61.15,335l-1.46-15.72c-12.6-9.78-22.94-15.33-25.48-16.63
									C33.82,302.45,33.62,302.35,33.62,302.35z"/>
							</g>
						</g>
					</g>
				</g>
			</g>
		</g>
		<g>
			<g>
				<g>
					<g>
						<g>
							<g>
								<g>
									<polygon class="st3" points="33.27,302.53 33.64,303.21 56.4,345.09 56.81,345.83 63.01,357.25 63.22,357.63 83.01,394.03 
										83.04,394.08 115.28,453.41 115.77,454.3 116.54,455.71 117.41,455.71 116.65,454.3 115.53,452.24 83.71,393.69 
										83.12,392.61 34.22,302.65 33.95,302.16 									"/>
								</g>
							</g>
						</g>
					</g>
				</g>
			</g>
		</g>
		<g>
			<g>
				<g>
					<g>
						<g>
							<g>
								
									<rect x="49.65" y="334.19" transform="matrix(0.5228 -0.8524 0.8524 0.5228 -274.2027 209.4467)" class="st3" width="0.67" height="30.91"/>
							</g>
						</g>
					</g>
				</g>
			</g>
		</g>
		<g>
			<g>
				<g>
					<g>
						<g>
							<g>
								
									<rect x="46.19" y="327.3" transform="matrix(0.5228 -0.8524 0.8524 0.5228 -267.1294 201.6163)" class="st3" width="0.67" height="24.23"/>
							</g>
						</g>
					</g>
				</g>
			</g>
		</g>
		<g>
			<g>
				<g>
					<g>
						<g>
							<g>
								<polygon class="st3" points="86.16,397.08 89.96,348.76 89.22,348.7 85.42,397.03 								"/>
							</g>
						</g>
					</g>
				</g>
			</g>
		</g>
		<g>
			<g>
				<g>
					<g>
						<g>
							<g>
								<path class="st4" d="M119.57,465.34c0,0-23.09,12.43-57.83-5.9l10.65-5.76l-17.79,1.65c-13.63-8.51-28.79-21.77-44.88-42.08
									l4.07-2.19l-5.39,0.5c-2.71-3.47-5.45-7.15-8.22-11.05c0,0,9.85-1.4,24.07-0.5l7.77,9.45l-2.54-9.02
									C58.63,403.32,101.52,416.26,119.57,465.34z"/>
							</g>
						</g>
					</g>
				</g>
			</g>
		</g>
		<g>
			<g>
				<g>
					<g>
						<g>
							<g>
								<g>
									
										<rect x="60.33" y="363.64" transform="matrix(0.4588 -0.8885 0.8885 0.4588 -350.7916 287.6241)" class="st3" width="0.76" height="136.27"/>
								</g>
							</g>
						</g>
					</g>
				</g>
			</g>
		</g>
		<g>
			<g>
				<g>
					<g>
						<g>
							<g>
								
									<rect x="14.88" y="418.03" transform="matrix(0.988 -0.1544 0.1544 0.988 -64.3139 8.6208)" class="st3" width="16.93" height="0.7"/>
							</g>
						</g>
					</g>
				</g>
			</g>
		</g>
		<g>
			<g>
				<g>
					<g>
						<g>
							<g>
								
									<rect x="20.31" y="423.11" transform="matrix(0.974 -0.2266 0.2266 0.974 -95.186 17.8839)" class="st3" width="19.95" height="0.71"/>
							</g>
						</g>
					</g>
				</g>
			</g>
		</g>
	</g>
	<g>
		<g>
			<g>
				<path class="st16" d="M319.75,486.71H109.24c-5.41,0-9.8-4.39-9.8-9.8V333.87c0-5.41,4.39-9.8,9.8-9.8h210.51
					c5.41,0,9.8,4.39,9.8,9.8v143.04C329.55,482.32,325.16,486.71,319.75,486.71z"/>
			</g>
		</g>
	</g>
	<g>
		<g>
			<g>
				<g>
					<path class="st5" d="M322.57,340.96v128.88c0,5.46-4.42,9.88-9.88,9.88h-14.91V339.43H112.14c-2.31,0-4.17-1.87-4.17-4.17l0,0
						c0-2.31,1.87-4.17,4.17-4.17H312.7C318.15,331.08,322.57,335.5,322.57,340.96z"/>
				</g>
			</g>
		</g>
	</g>
	<g>
		<g>
			<g>
				<path class="st10" d="M266.18,326.19c0.2,0.25,0.41,0.5,0.6,0.75c5.76,7.46,8.28,16.71,7.08,26.06
					c-1.19,9.35-5.95,17.67-13.41,23.44c-15.39,11.89-37.6,9.06-49.5-6.34c-5.76-7.46-8.29-16.71-7.09-26.06
					c1.15-9.02,5.63-17.09,12.65-22.82c0.26-0.21,0.51-0.41,0.77-0.61C232.43,308.9,254.15,311.47,266.18,326.19z"/>
			</g>
		</g>
	</g>
	<g>
		<g>
			<path class="st11" d="M236.65,375.98v-6.64c-3.81-0.07-7.76-1.25-10.06-2.89l1.58-4.4c2.37,1.58,5.78,2.83,9.47,2.83
				c4.67,0,7.82-2.7,7.82-6.44c0-3.62-2.56-5.85-7.43-7.82c-6.71-2.63-10.85-5.65-10.85-11.37c0-5.46,3.88-9.6,9.93-10.58v-6.64
				h4.08v6.38c3.94,0.13,6.64,1.18,8.55,2.3l-1.64,4.34c-1.38-0.79-4.08-2.23-8.28-2.23c-5.06,0-6.97,3.02-6.97,5.65
				c0,3.42,2.43,5.13,8.15,7.49c6.77,2.76,10.19,6.18,10.19,12.03c0,5.19-3.62,10.06-10.39,11.18v6.84H236.65z"/>
		</g>
	</g>
	<g>
		<g>
			<g>
				<path class="st11" d="M249.97,306.12c-23.42-6.13-47.37,7.88-53.51,31.31c-6.13,23.42,7.88,47.38,31.31,53.51
					c23.42,6.13,47.38-7.88,53.51-31.31C287.41,336.21,273.39,312.25,249.97,306.12z M273.01,357.46
					c-2.39,9.12-8.18,16.76-16.32,21.52c-8.13,4.76-17.63,6.07-26.75,3.69c-18.82-4.93-30.12-24.25-25.19-43.07
					c2.39-9.12,8.17-16.76,16.31-21.52c7.85-4.59,16.97-5.97,25.8-3.92c0.32,0.07,0.63,0.16,0.95,0.24
					c18.52,4.84,29.74,23.61,25.43,42.13C273.16,356.84,273.09,357.15,273.01,357.46z"/>
			</g>
		</g>
	</g>
	<g>
		<path class="st11" d="M174.62,271.95c-24.2-0.66-44.35,18.42-45.01,42.63c-0.66,24.2,18.42,44.36,42.63,45.01
			c24.2,0.66,44.36-18.42,45.01-42.63C217.91,292.76,198.83,272.61,174.62,271.95z M208.71,316.73
			c-0.26,9.42-4.17,18.18-11.02,24.66c-6.84,6.48-15.79,9.91-25.22,9.66c-19.44-0.53-34.84-16.78-34.31-36.23
			c0.26-9.42,4.16-18.18,11.01-24.66c6.6-6.25,15.17-9.67,24.24-9.67c0.33,0,0.65,0.01,0.98,0.02
			c19.13,0.51,34.32,16.25,34.32,35.26C208.72,316.09,208.72,316.41,208.71,316.73z"/>
	</g>
	<g>
		<g>
			<g>
				<path class="st10" d="M200.74,293.43c0.2,0.25,0.41,0.5,0.6,0.75c5.76,7.46,8.28,16.71,7.08,26.06
					c-1.19,9.35-5.95,17.67-13.41,23.44c-15.39,11.89-37.6,9.06-49.5-6.34c-5.76-7.46-8.29-16.71-7.09-26.06
					c1.15-9.02,5.63-17.09,12.65-22.82c0.26-0.21,0.51-0.41,0.77-0.61C166.99,276.15,188.71,278.71,200.74,293.43z"/>
			</g>
		</g>
	</g>
	<g>
		<g>
			<path class="st11" d="M171.2,342.76v-6.64c-3.81-0.07-7.76-1.25-10.06-2.89l1.58-4.4c2.37,1.58,5.78,2.83,9.47,2.83
				c4.67,0,7.82-2.7,7.82-6.44c0-3.62-2.56-5.85-7.43-7.82c-6.71-2.63-10.85-5.65-10.85-11.37c0-5.46,3.88-9.6,9.93-10.58v-6.64
				h4.08v6.38c3.94,0.13,6.64,1.18,8.55,2.3l-1.64,4.34c-1.38-0.79-4.08-2.23-8.28-2.23c-5.06,0-6.97,3.02-6.97,5.65
				c0,3.42,2.43,5.13,8.15,7.49c6.77,2.76,10.19,6.18,10.19,12.03c0,5.19-3.62,10.06-10.39,11.18v6.84H171.2z"/>
		</g>
	</g>
	<g>
		<path class="st5" d="M201.96,283.46c-3.39-2.97-7.19-5.38-11.31-7.16l0.41-0.94c4.21,1.83,8.11,4.3,11.58,7.33L201.96,283.46z"/>
	</g>
	<g>
		<path class="st5" d="M198.17,352.88l-0.57-0.85c11.61-7.81,18.76-20.82,19.14-34.78c0.24-8.68-2.09-17.12-6.74-24.41l0.87-0.55
			c4.75,7.47,7.14,16.11,6.9,24.99C217.38,331.57,210.05,344.88,198.17,352.88z"/>
	</g>
	<g>
		<path class="st5" d="M206.94,306.78c-0.08-0.3-0.16-0.59-0.25-0.89c-2.79-9.64-9.61-17.6-18.72-21.87l0.41-0.87
			c9.36,4.38,16.36,12.56,19.22,22.45c0.1,0.33,0.18,0.63,0.26,0.94L206.94,306.78z"/>
	</g>
	<g>
		<path class="st5" d="M187.97,284.02c-7.32-3.43-15.66-4.2-23.48-2.16l-0.24-0.92c8.04-2.09,16.6-1.3,24.13,2.22L187.97,284.02z"/>
	</g>
	<g>
		<path class="st5" d="M204.08,333.65l-0.82-0.48c2.35-3.99,3.85-8.31,4.49-12.83l0.95,0.13
			C208.04,325.12,206.49,329.55,204.08,333.65z"/>
	</g>
	<g>
		<g>
			<g>
				<path class="st16" d="M305.06,500.17H108.94c-5.25,0-9.5-4.25-9.5-9.5V349.09c0-5.25,4.25-9.5,9.5-9.5h196.12
					c5.25,0,9.5,4.25,9.5,9.5v141.58C314.56,495.92,310.31,500.17,305.06,500.17z"/>
			</g>
		</g>
	</g>
	<g>
		<g>
			<g>
				<path class="st5" d="M181.57,493.86h-64.7c-4.87,0-8.83-3.96-8.83-8.83v-12.45h1.03v12.45c0,4.3,3.5,7.81,7.81,7.81h64.7V493.86
					z"/>
			</g>
		</g>
		<g>
			<g>
				<rect x="197.28" y="492.83" class="st5" width="19.94" height="1.03"/>
			</g>
		</g>
		<g>
			<g>
				<path class="st5" d="M305.96,371.9h-1.03v-17.17c0-4.3-3.5-7.81-7.81-7.81h-84.49v-1.03h84.49c4.87,0,8.83,3.96,8.83,8.83V371.9
					z"/>
			</g>
		</g>
		<g>
			<g>
				<rect x="178.4" y="345.9" class="st5" width="19.06" height="1.03"/>
			</g>
		</g>
		<g>
			<g>
				<rect x="108.04" y="434.72" class="st5" width="1.03" height="24.24"/>
			</g>
		</g>
	</g>
	<g>
		<g>
			<g>
				<g>
					<path class="st14" d="M329.29,386.91v45.38c0,5.7-4.61,10.32-10.32,10.32h-39.26c-12.55,0-22.73-10.17-22.73-22.73
						c0-6.28,2.54-11.96,6.66-16.07c4.11-4.11,9.79-6.66,16.07-6.66h39.26c0.29,0,0.57,0.01,0.86,0.04
						C325.14,396.75,329.29,392.31,329.29,386.91z"/>
				</g>
			</g>
		</g>
		<g>
			<g>
				<g>
					<g>
						<g>
							
								<ellipse transform="matrix(0.7071 -0.7071 0.7071 0.7071 -215.5829 319.2991)" class="st3" cx="277.64" cy="419.88" rx="10.6" ry="10.6"/>
						</g>
					</g>
				</g>
			</g>
			<g>
				<g>
					<g>
						<g>
							<path class="st5" d="M277.64,431v-1.03c5.56,0,10.09-4.53,10.09-10.09c0-5.56-4.53-10.09-10.09-10.09v-1.03
								c6.13,0,11.12,4.99,11.12,11.12C288.75,426.01,283.77,431,277.64,431z"/>
						</g>
					</g>
				</g>
				<g>
					<g>
						<g>
							<path class="st5" d="M267.54,419.88h-1.03c0-2.97,1.16-5.76,3.26-7.86l0.73,0.73C268.59,414.65,267.54,417.18,267.54,419.88z
								"/>
						</g>
					</g>
				</g>
			</g>
		</g>
	</g>
	<g>
		<g>
			<g>
				<g>
					<g>
						<g>
							<g>
								<path class="st5" d="M95.25,428.58c-5.5-5.2-11.76-9.78-18.59-13.59l0.5-0.9c6.91,3.85,13.24,8.48,18.8,13.74L95.25,428.58z
									"/>
							</g>
						</g>
					</g>
					<g>
						<g>
							<g>
								<path class="st5" d="M65.45,409.61c-3.73-1.53-7.66-2.89-11.69-4.06l0.29-0.99c4.07,1.18,8.03,2.55,11.8,4.1L65.45,409.61z"
									/>
							</g>
						</g>
					</g>
				</g>
			</g>
		</g>
	</g>
	<g>
		<g>
			<path class="st17" d="M320.55,125.05c-16.62-4.54-34.35-5.32-51.26-1.78c-8.45,1.72-16.72,4.4-24.52,8.09
				c-7.8,3.67-15.24,8.15-21.97,13.55c-6.74,5.38-12.91,11.5-18.23,18.29c-5.31,6.81-9.83,14.23-13.43,22.07
				c-0.9,1.96-1.69,3.97-2.53,5.96c-0.71,2.03-1.51,4.04-2.14,6.1c-1.3,4.11-2.44,8.27-3.26,12.51c-0.41,2.12-0.79,4.24-1.07,6.38
				c-0.07,0.53-0.15,1.07-0.21,1.6l-0.07,0.57l-0.04,0.36c-0.05,0.47-0.12,0.95-0.16,1.42l-7.99-0.81
				c3.36,8.51,7.65,16.24,12.58,23.01c3.4-7.67,7.64-14.54,12.45-20.48l-7.99-0.81c0.04-0.44,0.1-0.87,0.14-1.3l0.04-0.33l0.06-0.53
				c0.05-0.49,0.13-0.98,0.19-1.47c0.26-1.96,0.61-3.91,0.98-5.85c0.75-3.89,1.8-7.71,3-11.49c0.58-1.89,1.32-3.73,1.97-5.6
				c0.77-1.82,1.49-3.67,2.32-5.46c3.31-7.19,7.45-13.99,12.31-20.23c4.88-6.23,10.54-11.84,16.72-16.77
				c6.17-4.96,13.01-9.07,20.16-12.44c7.16-3.38,14.74-5.84,22.49-7.42c15.5-3.25,31.74-2.53,47.01,1.63L320.55,125.05z"/>
		</g>
	</g>
	<g>
		<g>
			<path class="st5" d="M236.41,135.82l-0.49-0.82c2.66-1.6,5.43-3.11,8.22-4.46c6.97-3.37,14.54-5.96,22.51-7.72
				c7.38-1.65,15.36-2.42,23.69-2.28c7.77,0.12,15.7,1.22,23.57,3.28l-0.24,0.93c-7.8-2.04-15.65-3.13-23.35-3.25
				c-8.26-0.14-16.16,0.62-23.47,2.26c-7.9,1.74-15.4,4.31-22.3,7.65C241.79,132.74,239.05,134.23,236.41,135.82z"/>
		</g>
		<g>
			<path class="st5" d="M216,152.07l-0.7-0.65c0.87-0.93,1.8-1.82,2.7-2.68c0.52-0.5,1.04-0.99,1.55-1.49
				c0.45-0.39,0.88-0.77,1.31-1.15c1.04-0.92,2.12-1.87,3.22-2.76l0.6,0.74c-1.08,0.88-2.15,1.83-3.19,2.74
				c-0.43,0.38-0.86,0.76-1.29,1.13c-0.49,0.49-1.01,0.99-1.53,1.49C217.77,150.28,216.85,151.16,216,152.07z"/>
		</g>
	</g>
	<g>
		<g>
			<path class="st5" d="M186.37,243.32l-0.49-0.67c-4.34-5.86-8.11-12.34-11.21-19.25l0.87-0.39c2.95,6.59,6.52,12.77,10.61,18.41
				c2.24-5.03,4.89-9.83,7.89-14.27l0.79,0.54c-3.11,4.62-5.85,9.62-8.14,14.87L186.37,243.32z"/>
		</g>
	</g>
	<g>
		<path class="st5" d="M182.14,220.2l-0.95-0.06c0.01-0.1,0.69-9.84,3.44-18.35l0.91,0.29C182.82,210.47,182.15,220.1,182.14,220.2z
			"/>
	</g>
	<g>
		<g>
			<g>
				<path class="st11" d="M115.55,413.38c-23.43,6.09-37.48,30.02-31.39,53.46c6.09,23.43,30.02,37.49,53.46,31.39
					c23.43-6.09,37.49-30.02,31.39-53.46C162.92,421.35,138.99,407.29,115.55,413.38z M160.74,446.93
					c2.37,9.12,1.05,18.62-3.73,26.75c-4.77,8.13-12.41,13.91-21.54,16.28c-18.83,4.89-38.13-6.44-43.02-25.28
					c-2.37-9.12-1.06-18.62,3.72-26.75c4.6-7.84,11.89-13.5,20.6-16.02c0.32-0.09,0.63-0.17,0.95-0.26
					c18.52-4.82,37.49,6.07,42.77,24.34C160.57,446.31,160.66,446.62,160.74,446.93z"/>
			</g>
		</g>
		<g>
			<g>
				<path class="st10" d="M160.48,446c0.09,0.31,0.18,0.62,0.26,0.93c2.37,9.12,1.05,18.62-3.73,26.75
					c-4.77,8.13-12.41,13.91-21.54,16.28c-18.83,4.89-38.13-6.44-43.02-25.28c-2.37-9.12-1.06-18.62,3.72-26.75
					c4.6-7.84,11.89-13.5,20.6-16.02c0.32-0.09,0.63-0.17,0.95-0.26C136.23,416.84,155.2,427.74,160.48,446z"/>
			</g>
		</g>
		<g>
			<g>
				<g>
					<path class="st5" d="M157.29,487.78l-0.66-0.69c11.3-10.87,15.87-27.04,11.92-42.19c-1.38-5.31-3.7-10.23-6.91-14.63l0.77-0.56
						c3.28,4.49,5.65,9.52,7.06,14.95C173.5,460.15,168.84,476.67,157.29,487.78z M151.52,420.34c-4.14-2.91-8.71-5.05-13.58-6.38
						l0.25-0.92c4.98,1.36,9.65,3.55,13.88,6.52L151.52,420.34z"/>
				</g>
			</g>
		</g>
		<g>
			<g>
				<g>
					<path class="st11" d="M131.94,482.35l-1.84-6.38c-3.68,1-7.8,0.96-10.46,0.02l0.29-4.67c2.71,0.86,6.34,1.11,9.88,0.08
						c4.48-1.3,6.77-4.76,5.72-8.36c-1-3.47-4.09-4.91-9.31-5.45c-7.17-0.66-11.99-2.42-13.58-7.91c-1.52-5.24,1.06-10.3,6.59-12.92
						l-1.84-6.38l3.91-1.13l1.77,6.13c3.83-0.97,6.71-0.71,8.85-0.16l-0.37,4.62c-1.54-0.37-4.54-1.01-8.58,0.15
						c-4.86,1.41-5.85,4.84-5.12,7.37c0.95,3.28,3.76,4.25,9.91,4.93c7.27,0.77,11.5,3.11,13.13,8.73
						c1.44,4.99-0.68,10.67-6.87,13.62l1.9,6.57L131.94,482.35z"/>
				</g>
			</g>
		</g>
		<g>
			<g>
				<path class="st18" d="M95.34,431.3c3.24,1.65,5.47,4.17,6.99,7.33l0,0c1.52-3.16,3.76-5.7,7-7.35l0,0
					c-3.24-1.65-5.48-4.17-7-7.33l0,0C100.81,427.12,98.58,429.66,95.34,431.3z"/>
			</g>
			<g>
				<path class="st18" d="M109.67,442.7c1.88,0.96,3.18,2.42,4.06,4.26l0,0c0.89-1.84,2.19-3.31,4.07-4.27l0,0
					c-1.88-0.96-3.18-2.42-4.07-4.26l0,0C112.84,440.27,111.55,441.74,109.67,442.7z"/>
			</g>
		</g>
		<g>
			<g>
				<g>
					<path class="st5" d="M160.27,447.05c-0.08-0.31-0.17-0.61-0.26-0.92c-2.78-9.62-9.6-17.58-18.71-21.84l0.41-0.87
						c9.36,4.38,16.36,12.56,19.22,22.45c0.09,0.31,0.18,0.63,0.26,0.94L160.27,447.05z"/>
				</g>
			</g>
			<g>
				<g>
					<path class="st5" d="M141.31,424.29c-7.32-3.43-15.66-4.2-23.48-2.16l-0.24-0.92c8.03-2.09,16.6-1.3,24.13,2.22L141.31,424.29z
						"/>
				</g>
			</g>
			<g>
				<g>
					<path class="st5" d="M91.98,464.81c-2.4-9.25-1.06-18.88,3.77-27.11l0.82,0.48c-4.71,8.01-6.01,17.38-3.67,26.38L91.98,464.81z
						"/>
				</g>
			</g>
			<g>
				<g>
					<path class="st5" d="M157.42,473.92l-0.82-0.48c2.35-3.99,3.85-8.31,4.49-12.83l0.95,0.13
						C161.38,465.39,159.83,469.82,157.42,473.92z"/>
				</g>
			</g>
		</g>
	</g>
	<g>
		<g>
			<path class="st18" d="M141.76,291.26c3.24,1.65,5.47,4.17,6.99,7.33l0,0c1.52-3.16,3.76-5.7,7-7.35l0,0
				c-3.24-1.65-5.48-4.17-7-7.33l0,0C147.23,287.08,145,289.62,141.76,291.26z"/>
		</g>
		<g>
			<path class="st18" d="M188.98,331.48c1.88,0.96,3.18,2.42,4.06,4.26l0,0c0.89-1.84,2.19-3.31,4.07-4.27l0,0
				c-1.88-0.96-3.18-2.42-4.07-4.26l0,0C192.16,329.04,190.86,330.52,188.98,331.48z"/>
		</g>
	</g>
	<g>
		<g>
			<path class="st18" d="M383.08,86.52c3.24,1.65,5.47,4.17,6.99,7.33l0,0c1.52-3.16,3.76-5.7,7-7.35l0,0
				c-3.24-1.65-5.48-4.17-7-7.33l0,0C388.55,82.34,386.32,84.88,383.08,86.52z"/>
		</g>
	</g>
	<g>
		<g>
			<path class="st18" d="M569.03,470.15c3.24,1.65,5.47,4.17,6.99,7.33l0,0c1.52-3.16,3.76-5.7,7-7.35l0,0
				c-3.24-1.65-5.48-4.17-7-7.33l0,0C574.5,465.97,572.27,468.51,569.03,470.15z"/>
		</g>
	</g>
	<g>
		<path class="st18" d="M564.3,492.11c1.88,0.96,3.18,2.42,4.06,4.26l0,0c0.89-1.84,2.19-3.31,4.07-4.27l0,0
			c-1.88-0.96-3.18-2.42-4.07-4.26l0,0C567.48,489.68,566.18,491.16,564.3,492.11z"/>
	</g>
</g>
</svg>
