<svg width="1335" height="1034" viewBox="0 0 1335 1034" fill="none" xmlns="http://www.w3.org/2000/svg">
<path d="M149.447 515.761V643.001C149.447 645.802 149.447 648.403 149.647 651.204L264.083 536.768V515.761H149.447ZM488.554 149.847L373.918 264.283V285.289L488.554 268.084V156.849C488.754 154.448 488.754 152.248 488.554 149.847ZM336.306 343.708C326.503 338.506 317.7 333.304 310.298 328.303L227.872 410.729C236.875 417.131 246.678 422.932 257.281 428.534L299.694 451.541C311.498 457.743 321.901 464.145 330.504 470.347L412.53 388.322C402.326 380.719 391.123 373.717 378.719 366.915L336.306 343.708Z" fill="#004080"/>
<path d="M374.118 264.483V167.252C374.118 147.446 369.716 132.842 360.913 123.639C352.111 114.436 338.306 109.834 319.1 109.834C299.094 109.834 285.09 114.236 276.687 123.039C268.285 131.841 264.083 146.446 264.083 167.252V218.869C264.083 257.08 268.285 283.289 276.687 297.493C282.489 307.096 293.692 317.499 310.298 328.503L227.872 410.929C204.465 394.724 186.859 375.718 174.655 354.111C157.85 324.302 149.447 283.889 149.447 232.673V157.049C149.447 52.2163 206.065 0 319.1 0C374.918 0 417.131 13.4042 445.74 40.0125C473.149 65.6205 487.353 102.232 488.754 150.047L374.118 264.483Z" fill="#004080"/>
<path d="M488.754 569.578V642.801C488.754 694.017 474.149 733.23 445.14 760.238C416.131 787.447 374.118 800.851 319.1 800.851C208.866 800.851 152.448 750.835 149.447 650.804L263.883 536.368V634.599C263.883 654.605 268.084 668.809 276.487 677.612C284.89 686.415 299.094 690.816 318.9 690.816C355.512 690.816 373.918 672.01 373.918 634.599V576.18C373.918 540.969 369.116 515.361 359.713 499.356C353.911 489.553 344.108 479.75 330.304 469.947L412.33 387.921C435.337 404.927 452.542 423.933 463.946 444.939C480.551 475.349 488.754 516.962 488.754 569.578Z" fill="#FF5733"/>
<path d="M556.974 81.6256L488.753 150.047L374.117 264.483L310.297 328.303L227.871 410.729L0 638.4L81.0254 719.425L638 162.451L556.974 81.6256Z" fill="white"/>
<path d="M637.999 81.6256V162.651H597.586V122.038H556.974V81.6256H637.999Z" fill="#004080"/>
<path d="M81.2256 679.012V719.625H0.200195V638.4H40.6129V679.012H81.2256Z" fill="#FF5733"/>
<path d="M40.6129 638.4L556.974 122.038V81.6256L0.200195 638.4H40.6129Z" fill="#FF5733"/>
<path d="M597.587 162.651L81.2256 679.013V719.625L638 162.651H597.587Z" fill="#004080"/>
<path d="M0 1030.8V895.6H24.5V1030.8H0Z" fill="#004080"/>
<path d="M70.6 948.9C84.3 938.5 98.2 932 112.1 932C129.1 932 138.5 941.4 138.5 958.6V1030.7H114.6V965.8C114.6 955 112.1 952.1 104.4 952.1C94.8 952.1 86 956.4 72.9 963.9V1030.7H49V934.7H69L70.6 948.9Z" fill="#004080"/>
<path d="M184 984.9C184.6 990 185.2 995.1 185.2 999.6V1030.8H161.3V893.6H185.4V952C185.4 957.9 185 963.4 184 968.9H194.4L220.7 934.8H247.7L220.9 968.9C218.7 972.2 215 975.6 212.9 976.9V977.3C215.1 978.7 218.8 983 220.9 986.5L250.9 1030.8H223.9L194.7 985H184V984.9Z" fill="#004080"/>
<path d="M389.7 1024.3C388.7 1028.4 385.4 1030.8 381.3 1030.8H361.1C356.6 1030.8 353.1 1027.9 352.3 1023.4L340.7 964.4C339.7 959.1 339.3 954 338.2 948.7H335.8L333.1 964.4L321.9 1023.4C321.1 1027.9 317.4 1030.8 312.9 1030.8H293.1C288.8 1030.8 285.3 1028.4 284.5 1024.3L259 934.8H283.3L299.2 1000.8C300.4 1005.9 301.4 1011 301.7 1016.1H304.2C305.2 1011 306.4 1005.9 307.1 1000.8L318.9 941.8C319.7 937.5 322.8 934.7 327.3 934.7H346.7C351.2 934.7 354.5 937.4 355.3 941.9L366.7 1000.7C367.5 1005.8 368.7 1010.7 369.6 1016H372.1C372.9 1010.7 373.5 1005.8 374.6 1000.7L390.5 934.7H414.9L389.7 1024.3Z" fill="#004080"/>
<path d="M449.2 992.8C451.2 1010.2 458.4 1013.8 474.9 1013.8C484.1 1013.8 497.8 1012.8 509.4 1011.5L511.6 1026.8C501.4 1031.7 484.2 1033.3 472 1033.3C437.1 1033.3 424 1019.2 424 982.8C424 944.8 437.9 932.3 470.4 932.3C501.6 932.3 514.1 943.9 514.1 965.6C514.1 982.8 506.3 993 488.4 993H449.2V992.8ZM481.8 976.1C489.4 976.1 490.4 970 490.4 964.9C490.4 954.7 486.1 950.8 471.4 950.8C454.9 950.8 449.5 955.9 448.9 976.1H481.8Z" fill="#004080"/>
<path d="M556.1 1000.8C555.9 1008.4 559.8 1012 567.5 1012H575.7L578.4 1029.6C574.1 1031.8 563.5 1032.9 558 1032.9C542.1 1032.9 532.1 1023.5 532.1 1006.6V893.6H556V1000.8H556.1Z" fill="#004080"/>
<path d="M615.3 1000.8C615.1 1008.4 619 1012 626.7 1012H634.9L637.6 1029.6C633.3 1031.8 622.7 1032.9 617.2 1032.9C601.3 1032.9 591.3 1023.5 591.3 1006.6V893.6H615.2V1000.8H615.3Z" fill="#004080"/>
<path d="M719.1 968.7C699.1 962.2 691.9 949.7 691.9 929.5C691.9 898.5 706 893.3 738.3 893.3C751.2 893.3 766.3 894.1 780.8 897.8L779.2 915.2C768 914.8 752.4 914.4 739 914.4C722.5 914.4 716.5 915.4 716.5 929.9C716.5 941.9 721 944.6 731.6 947.9L757.7 955.9C779.1 962.8 785.5 975.5 785.5 995.3C785.5 1026.1 772.2 1033.1 737.5 1033.1C729.3 1033.1 713.2 1032.7 693.6 1028.8L695.2 1010.8C720.9 1011.4 728.7 1011.6 738.1 1011.6C755.7 1011.6 760.6 1009.1 760.6 995.1C760.6 982.8 756.1 980.4 746.3 977.3L719.1 968.7Z" fill="#FF5733"/>
<path d="M831.2 1000.8C831.2 1009.2 834.1 1012 842.8 1012H855.9L858.4 1029.6C851.7 1031.8 839.6 1032.9 833.7 1032.9C816.8 1032.9 807.6 1022.7 807.6 1004.9V952H790.2V935.7L807.4 934.7V907.1H831.1V934.7H859.3V951.9H831.1V1000.8H831.2Z" fill="#FF5733"/>
<path d="M962.2 1030.8H943.4L941.6 1017.9C927.9 1028.3 915.1 1033.4 901.4 1033.4C884 1033.4 874.8 1024.4 874.8 1006.8V934.9H898.7V999.8C898.5 1010 901.4 1013.3 910.5 1013.3C918.7 1013.3 926.8 1009.6 938.5 1002.7V934.9H962.2V1030.8Z" fill="#FF5733"/>
<path d="M1073.8 1030.8H1055L1053 1017.7C1044.4 1025.7 1031.4 1033.2 1015.8 1033.2C991.5 1033.2 982.1 1014.8 982.1 982.3C982.1 944.1 994.6 932.1 1018.9 932.1C1030.3 932.1 1041.4 934.6 1050.8 940.5C1050 934.2 1049.8 928 1049.8 921.3V893.7H1073.7V1030.8H1073.8ZM1049.9 955.4C1041.3 953.2 1034.6 951.5 1026 951.5C1011.9 951.5 1006.6 956.2 1006.6 982.1C1006.6 1007.4 1011.9 1013.1 1024.6 1013.1C1034.2 1013.1 1039.3 1010.2 1049.9 1003.1V955.4Z" fill="#FF5733"/>
<path d="M1114.6 893.1C1119.3 893.1 1121.5 895.6 1121.5 900V910.7C1121.5 915.2 1119.3 917.6 1114.6 917.6H1103.6C1099.1 917.6 1096.7 915.2 1096.7 910.7V899.9C1096.7 895.6 1099.1 893 1103.6 893H1114.6V893.1ZM1097.3 1030.8V934.8H1121V1030.8H1097.3Z" fill="#FF5733"/>
<path d="M1235.3 982.8C1235.3 1019.6 1222.6 1033.3 1188.1 1033.3C1153.4 1033.3 1140.5 1019.6 1140.5 982.8C1140.5 946 1153.4 932.1 1188.1 932.1C1222.5 932 1235.3 946 1235.3 982.8ZM1165.3 982.8C1165.3 1007.5 1170.4 1014.3 1188 1014.3C1205.2 1014.3 1210.5 1007.4 1210.5 982.8C1210.5 957.9 1205.2 951.1 1188 951.1C1170.4 951 1165.3 957.9 1165.3 982.8Z" fill="#FF5733"/>
<path d="M1272.7 987.5C1255.7 982.6 1250.2 974.6 1250.2 959.3C1250.2 938.1 1261.2 932.1 1289.4 932.1C1302.5 932.3 1320.2 933.7 1331.9 935.6L1330.1 952.1C1318 951.7 1305.6 951.3 1293.5 951.3C1277.4 951.3 1273.1 951.5 1273.1 959.5C1273.1 967.1 1277.2 967.3 1286.2 969.9L1312.1 977C1328 981.5 1335 987.8 1335 1004.6C1335 1028.1 1322.1 1033 1292.1 1033C1285.6 1033 1269.4 1032.8 1251.9 1029.9L1253.5 1013.2C1261.1 1013.8 1273.9 1014 1286.2 1014C1306.6 1014 1312.1 1012.4 1312.1 1004.8C1312.1 997.6 1307 997 1298 994.4L1272.7 987.5Z" fill="#FF5733"/>
</svg>
