<svg width="319" height="401" viewBox="0 0 319 401" fill="none" xmlns="http://www.w3.org/2000/svg">
<path d="M74.7002 257.8V321.4C74.7002 322.8 74.7002 324.1 74.8002 325.5L132 268.3V257.8H74.7002ZM244.2 74.9L186.9 132.1V142.6L244.2 134V78.4C244.3 77.2 244.3 76.1 244.2 74.9ZM168.1 171.8C163.2 169.2 158.8 166.6 155.1 164.1L113.9 205.3C118.4 208.5 123.3 211.4 128.6 214.2L149.8 225.7C155.7 228.8 160.9 232 165.2 235.1L206.2 194.1C201.1 190.3 195.5 186.8 189.3 183.4L168.1 171.8Z" fill="#004080"/>
<path d="M187 132.2V83.6C187 73.7 184.8 66.4 180.4 61.8C176 57.2 169.1 54.9 159.5 54.9C149.5 54.9 142.5 57.1 138.3 61.5C134.1 65.9 132 73.2 132 83.6V109.4C132 128.5 134.1 141.6 138.3 148.7C141.2 153.5 146.8 158.7 155.1 164.2L113.9 205.4C102.2 197.3 93.4002 187.8 87.3002 177C78.9002 162.1 74.7002 141.9 74.7002 116.3V78.5C74.7002 26.1 103 0 159.5 0C187.4 0 208.5 6.7 222.8 20C236.5 32.8 243.6 51.1 244.3 75L187 132.2Z" fill="#004080"/>
<path d="M244.3 284.7V321.3C244.3 346.9 237 366.5 222.5 380C208 393.6 187 400.3 159.5 400.3C104.4 400.3 76.2002 375.3 74.7002 325.3L131.9 268.1V317.2C131.9 327.2 134 334.3 138.2 338.7C142.4 343.1 149.5 345.3 159.4 345.3C177.7 345.3 186.9 335.9 186.9 317.2V288C186.9 270.4 184.5 257.6 179.8 249.6C176.9 244.7 172 239.8 165.1 234.9L206.1 193.9C217.6 202.4 226.2 211.9 231.9 222.4C240.2 237.6 244.3 258.4 244.3 284.7Z" fill="#FF5733"/>
<path d="M278.4 40.8L244.3 75L187 132.2L155.1 164.1L113.9 205.3L0 319.1L40.5 359.6L318.9 81.2L278.4 40.8Z" fill="white"/>
<path d="M318.9 40.8V81.3H298.7V61H278.4V40.8H318.9Z" fill="#004080"/>
<path d="M40.6001 339.4V359.7H0.100098V319.1H20.3001V339.4H40.6001Z" fill="#FF5733"/>
<path d="M20.3001 319.1L278.4 61V40.8L0.100098 319.1H20.3001Z" fill="#FF5733"/>
<path d="M298.7 81.3L40.6001 339.4V359.7L318.9 81.3H298.7Z" fill="#004080"/>
</svg>
