<svg width="1335" height="617" viewBox="0 0 1335 617" fill="none" xmlns="http://www.w3.org/2000/svg">
<path d="M0 613.7V478.5H24.5V613.7H0Z" fill="white"/>
<path d="M70.6 531.8C84.3 521.4 98.2 514.9 112.1 514.9C129.1 514.9 138.5 524.3 138.5 541.5V613.6H114.6V548.7C114.6 537.9 112.1 535 104.4 535C94.8 535 86 539.3 72.9 546.8V613.6H49V517.6H69L70.6 531.8Z" fill="white"/>
<path d="M184 567.8C184.6 572.9 185.2 578 185.2 582.5V613.7H161.3V476.5H185.4V534.9C185.4 540.8 185 546.3 184 551.8H194.4L220.7 517.7H247.7L220.9 551.8C218.7 555.1 215 558.5 212.9 559.8V560.2C215.1 561.6 218.8 565.9 220.9 569.4L250.9 613.7H223.9L194.7 567.9H184V567.8Z" fill="white"/>
<path d="M389.7 607.2C388.7 611.3 385.4 613.7 381.3 613.7H361.1C356.6 613.7 353.1 610.8 352.3 606.3L340.7 547.3C339.7 542 339.3 536.9 338.2 531.6H335.8L333.1 547.3L321.9 606.3C321.1 610.8 317.4 613.7 312.9 613.7H293.1C288.8 613.7 285.3 611.3 284.5 607.2L259 517.7H283.3L299.2 583.7C300.4 588.8 301.4 593.9 301.7 599H304.2C305.2 593.9 306.4 588.8 307.1 583.7L318.9 524.7C319.7 520.4 322.8 517.6 327.3 517.6H346.7C351.2 517.6 354.5 520.3 355.3 524.8L366.7 583.6C367.5 588.7 368.7 593.6 369.6 598.9H372.1C372.9 593.6 373.5 588.7 374.6 583.6L390.5 517.6H414.9L389.7 607.2Z" fill="white"/>
<path d="M449.2 575.7C451.2 593.1 458.4 596.7 474.9 596.7C484.1 596.7 497.8 595.7 509.4 594.4L511.6 609.7C501.4 614.6 484.2 616.2 472 616.2C437.1 616.2 424 602.1 424 565.7C424 527.7 437.9 515.2 470.4 515.2C501.6 515.2 514.1 526.8 514.1 548.5C514.1 565.7 506.3 575.9 488.4 575.9H449.2V575.7ZM481.8 559C489.4 559 490.4 552.9 490.4 547.8C490.4 537.6 486.1 533.7 471.4 533.7C454.9 533.7 449.5 538.8 448.9 559H481.8Z" fill="white"/>
<path d="M556.1 583.7C555.9 591.3 559.8 594.9 567.5 594.9H575.7L578.4 612.5C574.1 614.7 563.5 615.8 558 615.8C542.1 615.8 532.1 606.4 532.1 589.5V476.5H556V583.7H556.1Z" fill="white"/>
<path d="M615.3 583.7C615.1 591.3 619 594.9 626.7 594.9H634.9L637.6 612.5C633.3 614.7 622.7 615.8 617.2 615.8C601.3 615.8 591.3 606.4 591.3 589.5V476.5H615.2V583.7H615.3Z" fill="white"/>
<path d="M719.1 551.6C699.1 545.1 691.9 532.6 691.9 512.4C691.9 481.4 706 476.2 738.3 476.2C751.2 476.2 766.3 477 780.8 480.7L779.2 498.1C768 497.7 752.4 497.3 739 497.3C722.5 497.3 716.5 498.3 716.5 512.8C716.5 524.8 721 527.5 731.6 530.8L757.7 538.8C779.1 545.7 785.5 558.4 785.5 578.2C785.5 609 772.2 616 737.5 616C729.3 616 713.2 615.6 693.6 611.7L695.2 593.7C720.9 594.3 728.7 594.5 738.1 594.5C755.7 594.5 760.6 592 760.6 578C760.6 565.7 756.1 563.3 746.3 560.2L719.1 551.6Z" fill="white"/>
<path d="M831.2 583.7C831.2 592.1 834.1 594.9 842.8 594.9H855.9L858.4 612.5C851.7 614.7 839.6 615.8 833.7 615.8C816.8 615.8 807.6 605.6 807.6 587.8V534.9H790.2V518.6L807.4 517.6V490H831.1V517.6H859.3V534.8H831.1V583.7H831.2Z" fill="white"/>
<path d="M962.2 613.7H943.4L941.6 600.8C927.9 611.2 915.1 616.3 901.4 616.3C884 616.3 874.8 607.3 874.8 589.7V517.8H898.7V582.7C898.5 592.9 901.4 596.2 910.5 596.2C918.7 596.2 926.8 592.5 938.5 585.6V517.8H962.2V613.7Z" fill="white"/>
<path d="M1073.8 613.7H1055L1053 600.6C1044.4 608.6 1031.4 616.1 1015.8 616.1C991.5 616.1 982.1 597.7 982.1 565.2C982.1 527 994.6 515 1018.9 515C1030.3 515 1041.4 517.5 1050.8 523.4C1050 517.1 1049.8 510.9 1049.8 504.2V476.6H1073.7V613.7H1073.8ZM1049.9 538.3C1041.3 536.1 1034.6 534.4 1026 534.4C1011.9 534.4 1006.6 539.1 1006.6 565C1006.6 590.3 1011.9 596 1024.6 596C1034.2 596 1039.3 593.1 1049.9 586V538.3Z" fill="white"/>
<path d="M1114.6 476C1119.3 476 1121.5 478.5 1121.5 482.9V493.6C1121.5 498.1 1119.3 500.5 1114.6 500.5H1103.6C1099.1 500.5 1096.7 498.1 1096.7 493.6V482.8C1096.7 478.5 1099.1 475.9 1103.6 475.9H1114.6V476ZM1097.3 613.7V517.7H1121V613.7H1097.3Z" fill="white"/>
<path d="M1235.3 565.7C1235.3 602.5 1222.6 616.2 1188.1 616.2C1153.4 616.2 1140.5 602.5 1140.5 565.7C1140.5 528.9 1153.4 515 1188.1 515C1222.5 514.9 1235.3 528.9 1235.3 565.7ZM1165.3 565.7C1165.3 590.4 1170.4 597.2 1188 597.2C1205.2 597.2 1210.5 590.3 1210.5 565.7C1210.5 540.8 1205.2 534 1188 534C1170.4 533.9 1165.3 540.8 1165.3 565.7Z" fill="white"/>
<path d="M1272.7 570.4C1255.7 565.5 1250.2 557.5 1250.2 542.2C1250.2 521 1261.2 515 1289.4 515C1302.5 515.2 1320.2 516.6 1331.9 518.5L1330.1 535C1318 534.6 1305.6 534.2 1293.5 534.2C1277.4 534.2 1273.1 534.4 1273.1 542.4C1273.1 550 1277.2 550.2 1286.2 552.8L1312.1 559.9C1328 564.4 1335 570.7 1335 587.5C1335 611 1322.1 615.9 1292.1 615.9C1285.6 615.9 1269.4 615.7 1251.9 612.8L1253.5 596.1C1261.1 596.7 1273.9 596.9 1286.2 596.9C1306.6 596.9 1312.1 595.3 1312.1 587.7C1312.1 580.5 1307 579.9 1298 577.3L1272.7 570.4Z" fill="white"/>
<path d="M579.2 257.8V321.4C579.2 322.8 579.2 324.1 579.3 325.5L636.5 268.3V257.8H579.2ZM748.7 74.8999L691.4 132.1V142.6L748.7 134V78.3999C748.8 77.1999 748.8 76.0999 748.7 74.8999ZM672.6 171.8C667.7 169.2 663.3 166.6 659.6 164.1L618.4 205.3C622.9 208.5 627.8 211.4 633.1 214.2L654.3 225.7C660.2 228.8 665.4 232 669.7 235.1L710.7 194.1C705.6 190.3 700 186.8 693.8 183.4L672.6 171.8Z" fill="white"/>
<path d="M691.5 132.2V83.6C691.5 73.7 689.3 66.4 684.9 61.8C680.5 57.2 673.6 54.9 664 54.9C654 54.9 647 57.1 642.8 61.5C638.6 65.9 636.5 73.2 636.5 83.6V109.4C636.5 128.5 638.6 141.6 642.8 148.7C645.7 153.5 651.3 158.7 659.6 164.2L618.4 205.4C606.7 197.3 597.9 187.8 591.8 177C583.4 162.1 579.2 141.9 579.2 116.3V78.5C579.2 26.1 607.5 0 664 0C691.9 0 713 6.7 727.3 20C741 32.8 748.1 51.1 748.8 75L691.5 132.2Z" fill="white"/>
<path d="M748.8 284.7V321.3C748.8 346.9 741.5 366.5 727 380C712.5 393.6 691.5 400.3 664 400.3C608.9 400.3 580.7 375.3 579.2 325.3L636.4 268.1V317.2C636.4 327.2 638.5 334.3 642.7 338.7C646.9 343.1 654 345.3 663.9 345.3C682.2 345.3 691.4 335.9 691.4 317.2V288C691.4 270.4 689 257.6 684.3 249.6C681.4 244.7 676.5 239.8 669.6 234.9L710.6 193.9C722.1 202.4 730.7 211.9 736.4 222.4C744.7 237.6 748.8 258.4 748.8 284.7Z" fill="white"/>
<path d="M782.9 40.8L748.8 75L691.5 132.2L659.6 164.1L618.4 205.3L504.5 319.1L545 359.6L823.4 81.2L782.9 40.8Z" fill="#004080"/>
<path d="M823.4 40.8V81.3H803.2V61H782.9V40.8H823.4Z" fill="white"/>
<path d="M545.1 339.4V359.7H504.6V319.1H524.8V339.4H545.1Z" fill="white"/>
<path d="M524.8 319.1L782.9 61V40.8L504.6 319.1H524.8Z" fill="white"/>
<path d="M803.2 81.3L545.1 339.4V359.7L823.4 81.3H803.2Z" fill="white"/>
</svg>
