<svg width="100" height="100" viewBox="0 0 100 100" fill="none" xmlns="http://www.w3.org/2000/svg">
<path d="M50 100C77.6142 100 100 77.6142 100 50C100 22.3858 77.6142 0 50 0C22.3858 0 0 22.3858 0 50C0 77.6142 22.3858 100 50 100Z" fill="url(#paint0_linear_0_1)"/>
<g filter="url(#filter0_i_0_1)">
<path d="M39.1728 46.3962V56.2167H29.3987V69.0942H15.502V30.7856H29.3987V46.3962H39.1728Z" fill="white"/>
<path d="M68.7264 46.3962V56.2167H55.9417V69.0942H42.0449V30.7856H55.9417V46.3962H68.7264Z" fill="white"/>
<path d="M84.3369 30.7856V57.0042C84.3369 63.6745 78.9173 69.0942 72.247 69.0942H61.4072V59.5054H65.5763C68.8651 59.5054 71.5056 56.8652 71.5056 53.5765V30.7856H84.3369Z" fill="white"/>
<path d="M68.7273 30.7856V45.3773H66.4108L64.2337 43.2002L58.7217 37.734V31.3415L64.2337 36.8539V30.7856H68.7273Z" fill="white"/>
</g>
<defs>
<filter id="filter0_i_0_1" x="13.502" y="30.7856" width="70.835" height="40.3086" filterUnits="userSpaceOnUse" color-interpolation-filters="sRGB">
<feFlood flood-opacity="0" result="BackgroundImageFix"/>
<feBlend mode="normal" in="SourceGraphic" in2="BackgroundImageFix" result="shape"/>
<feColorMatrix in="SourceAlpha" type="matrix" values="0 0 0 0 0 0 0 0 0 0 0 0 0 0 0 0 0 0 127 0" result="hardAlpha"/>
<feOffset dx="-2" dy="2"/>
<feGaussianBlur stdDeviation="1.5"/>
<feComposite in2="hardAlpha" operator="arithmetic" k2="-1" k3="1"/>
<feColorMatrix type="matrix" values="0 0 0 0 0 0 0 0 0 0 0 0 0 0 0 0 0 0 0.25 0"/>
<feBlend mode="normal" in2="shape" result="effect1_innerShadow_0_1"/>
</filter>
<linearGradient id="paint0_linear_0_1" x1="-2.38242e-07" y1="49.2309" x2="100" y2="49.2309" gradientUnits="userSpaceOnUse">
<stop stop-color="#1724C9"/>
<stop offset="1" stop-color="#1C64F2"/>
</linearGradient>
</defs>
</svg>
